<!-- Generator: Adobe Illustrator 21.1.0, SVG Export Plug-In  -->
<svg version="1.1"
	 xmlns="http://www.w3.org/2000/svg" xmlns:xlink="http://www.w3.org/1999/xlink" xmlns:a="http://ns.adobe.com/AdobeSVGViewerExtensions/3.0/"
	 x="0px" y="0px" width="69px" height="51px" viewBox="0 0 69 51" style="enable-background:new 0 0 69 51;" xml:space="preserve">
<style type="text/css">
	.st0{fill:#EAAC39;}
</style>
<defs>
</defs>
<path id="Rounded_Rectangle_11_1_" class="st0" d="M54,30h-9v3h18v4H45v11c0,1.1-0.9,2-2,2s-2-0.9-2-2V37h-5v-4h5v-3h-5v-4h5V0h13
	c8.3,0,15,6.7,15,15S62.3,30,54,30z M54,4h-9v22h9c6.1,0,11-4.9,11-11S60.1,4,54,4L54,4z M15,51C6.7,51,0,44.3,0,36V15
	C0,6.7,6.7,0,15,0s15,6.7,15,15v21C30,44.3,23.3,51,15,51z M26,15c0-6.1-4.9-11-11-11S4,8.9,4,15v21c0,6.1,4.9,11,11,11
	s11-4.9,11-11V15z"/>
</svg>
