<!-- Generator: Adobe Illustrator 21.1.0, SVG Export Plug-In  -->
<svg version="1.1"
	 xmlns="http://www.w3.org/2000/svg" xmlns:xlink="http://www.w3.org/1999/xlink" xmlns:a="http://ns.adobe.com/AdobeSVGViewerExtensions/3.0/"
	 x="0px" y="0px" width="70.9px" height="53.4px" viewBox="0 0 70.9 53.4" style="enable-background:new 0 0 70.9 53.4;"
	 xml:space="preserve">
<style type="text/css">
	.st0{fill:#EAAC39;}
</style>
<defs>
</defs>
<g>
	<g>
		<g>
			<path class="st0" d="M24.4,24.4c-1.2,0-2.2,1-2.2,2.2c-0.1,0.8-3.4,2.6-8.9,2.6c-5.4,0-8.7-1.9-8.9-2.6c0-1.2-1-2.2-2.2-2.2
				S0,25.4,0,26.6c0,4.6,6.7,7.1,13.3,7.1s13.3-2.4,13.3-7.1C26.6,25.4,25.7,24.4,24.4,24.4z"/>
		</g>
	</g>
	<g>
		<g>
			<path class="st0" d="M24.4,17.9c-1.2,0-2.2,1-2.2,2.2c-0.1,0.8-3.4,2.6-8.9,2.6s-8.7-1.9-8.9-2.6c0-1.2-1-2.2-2.2-2.2
				S0,18.9,0,20.1c0,4.6,6.7,7.1,13.3,7.1s13.3-2.4,13.3-7.1C26.6,18.9,25.7,17.9,24.4,17.9z"/>
		</g>
	</g>
	<g>
		<g>
			<path class="st0" d="M24.4,31c-1.2,0-2.2,1-2.2,2.2c-0.1,0.6-3,2.6-8.9,2.6s-8.7-2-8.9-2.6c0-1.2-1-2.2-2.2-2.2S0,32,0,33.2
				c0,4.6,6.7,7.1,13.3,7.1s13.3-2.4,13.3-7.1C26.6,32,25.7,31,24.4,31z"/>
		</g>
	</g>
	<g>
		<g>
			<path class="st0" d="M24.4,37.5c-1.2,0-2.2,1-2.2,2.2c-0.1,0.6-3,2.6-8.9,2.6s-8.7-2-8.9-2.6c0-1.2-1-2.2-2.2-2.2S0,38.5,0,39.7
				c0,4.6,6.7,7.1,13.3,7.1s13.3-2.4,13.3-7.1C26.6,38.5,25.7,37.5,24.4,37.5z"/>
		</g>
	</g>
	<g>
		<g>
			<path class="st0" d="M24.4,44.1c-1.2,0-2.2,1-2.2,2.2c-0.1,0.6-3,2.6-8.9,2.6s-8.7-2-8.9-2.6c0-1.2-1-2.2-2.2-2.2S0,45.1,0,46.3
				c0,4.6,6.7,7.1,13.3,7.1s13.3-2.4,13.3-7.1C26.6,45.1,25.7,44.1,24.4,44.1z"/>
		</g>
	</g>
	<g>
		<g>
			<path class="st0" d="M46.6,24.4c-1.2,0-2.2,1-2.2,2.2c-0.1,0.8-3.4,2.6-8.8,2.6s-8.7-1.9-8.9-2.6c0-1.2-1-2.2-2.2-2.2
				s-2.2,1-2.2,2.2c0,4.6,6.7,7.1,13.3,7.1s13.3-2.4,13.3-7.1C48.8,25.4,47.8,24.4,46.6,24.4z"/>
		</g>
	</g>
	<g>
		<g>
			<path class="st0" d="M46.6,31c-1.2,0-2.2,1-2.2,2.2c-0.1,0.6-3,2.6-8.8,2.6c-5.9,0-8.7-2-8.9-2.6c0-1.2-1-2.2-2.2-2.2
				s-2.2,1-2.2,2.2c0,4.6,6.7,7.1,13.3,7.1s13.3-2.4,13.3-7.1C48.8,32,47.8,31,46.6,31z"/>
		</g>
	</g>
	<g>
		<g>
			<path class="st0" d="M46.6,37.5c-1.2,0-2.2,1-2.2,2.2c-0.1,0.8-3.4,2.6-8.8,2.6c-5.9,0-8.7-2-8.9-2.6c0-1.2-1-2.2-2.2-2.2
				s-2.2,1-2.2,2.2c0,4.6,6.7,7.1,13.3,7.1s13.3-2.4,13.3-7.1C48.8,38.5,47.8,37.5,46.6,37.5z"/>
		</g>
	</g>
	<g>
		<g>
			<path class="st0" d="M46.6,44.1c-1.2,0-2.2,1-2.2,2.2c-0.1,0.8-3.4,2.6-8.8,2.6c-5.9,0-8.7-2-8.9-2.6c0-1.2-1-2.2-2.2-2.2
				s-2.2,1-2.2,2.2c0,4.6,6.7,7.1,13.3,7.1s13.3-2.4,13.3-7.1C48.8,45.1,47.8,44.1,46.6,44.1z"/>
		</g>
	</g>
	<g>
		<g>
			<path class="st0" d="M35.5,13c-6.6,0-13.3,2.4-13.3,7.1c0,4.6,6.7,7.1,13.3,7.1s13.3-2.4,13.3-7.1C48.8,15.5,42.1,13,35.5,13z
				 M35.5,22.7c-5.9,0-8.7-2-8.9-2.6c0.1-0.8,3.4-2.6,8.9-2.6s8.7,1.9,8.8,2.6C44.2,20.7,41.4,22.7,35.5,22.7z"/>
		</g>
	</g>
	<g>
		<g>
			<path class="st0" d="M68.7,31c-1.2,0-2.2,1-2.2,2.2c-0.1,0.6-3,2.6-8.9,2.6s-8.7-2-8.9-2.6c0-1.2-1-2.2-2.2-2.2s-2.2,1-2.2,2.2
				c0,4.6,6.7,7.1,13.3,7.1c6.6,0,13.3-2.4,13.3-7.1C70.9,32,69.9,31,68.7,31z"/>
		</g>
	</g>
	<g>
		<g>
			<path class="st0" d="M68.7,37.5c-1.2,0-2.2,1-2.2,2.2c-0.1,0.6-3,2.6-8.9,2.6s-8.7-2-8.9-2.6c0-1.2-1-2.2-2.2-2.2s-2.2,1-2.2,2.2
				c0,4.6,6.7,7.1,13.3,7.1c6.6,0,13.3-2.4,13.3-7.1C70.9,38.5,69.9,37.5,68.7,37.5z"/>
		</g>
	</g>
	<g>
		<g>
			<path class="st0" d="M68.7,44.1c-1.2,0-2.2,1-2.2,2.2c-0.1,0.6-3,2.6-8.9,2.6s-8.7-2-8.9-2.6c0-1.2-1-2.2-2.2-2.2s-2.2,1-2.2,2.2
				c0,4.6,6.7,7.1,13.3,7.1c6.6,0,13.3-2.4,13.3-7.1C70.9,45.1,69.9,44.1,68.7,44.1z"/>
		</g>
	</g>
	<g>
		<g>
			<path class="st0" d="M57.6,26.1c-6.6,0-13.3,2.4-13.3,7.1s6.7,7.1,13.3,7.1c6.6,0,13.3-2.4,13.3-7.1S64.2,26.1,57.6,26.1z
				 M57.6,35.8c-5.9,0-8.7-2-8.9-2.6c0.1-0.8,3.4-2.6,8.9-2.6s8.7,1.9,8.9,2.6C66.4,33.8,63.5,35.8,57.6,35.8z"/>
		</g>
	</g>
	<g>
		<g>
			<path class="st0" d="M24.4,11.4c-1.2,0-2.2,1-2.2,2.2c-0.1,0.8-3.4,2.6-8.9,2.6s-8.7-1.9-8.9-2.6c0-1.2-1-2.2-2.2-2.2
				S0,12.4,0,13.6c0,4.6,6.7,7.1,13.3,7.1s13.3-2.4,13.3-7.1C26.6,12.4,25.7,11.4,24.4,11.4z"/>
		</g>
	</g>
	<g>
		<g>
			<path class="st0" d="M13.4,0C6.8,0,0.1,2.4,0.1,7.1s6.7,7.1,13.3,7.1s13.3-2.4,13.3-7.1C26.6,2.5,20,0,13.4,0z M13.4,9.7
				c-5.5,0-8.7-1.9-8.9-2.6c0.1-0.6,3-2.6,8.9-2.6s8.7,2,8.9,2.6C22.1,7.9,18.8,9.7,13.4,9.7z"/>
		</g>
	</g>
</g>
</svg>
