<!-- Generator: Adobe Illustrator 21.1.0, SVG Export Plug-In  -->
<svg version="1.1"
	 xmlns="http://www.w3.org/2000/svg" xmlns:xlink="http://www.w3.org/1999/xlink" xmlns:a="http://ns.adobe.com/AdobeSVGViewerExtensions/3.0/"
	 x="0px" y="0px" width="71.1px" height="68.2px" viewBox="0 0 71.1 68.2" style="enable-background:new 0 0 71.1 68.2;"
	 xml:space="preserve">
<style type="text/css">
	.st0{fill:#EAAC39;}
</style>
<defs>
</defs>
<path id="Rectangle_1641_copy_1_" class="st0" d="M67.6,27.4c1.6,1.8,3.5,3.9,3.5,6.7c0,2.8-1.9,4.9-3.5,6.7c-0.9,0.9-1.6,1.9-2.2,3
	c-0.2,1.3-0.2,2.6,0,3.9c0.2,2.4,0.5,5.1-1.1,7.3c-1.6,2.2-4.3,2.8-6.6,3.3c-2.7,0-5,1.7-5.9,4.2c-1.2,2.1-2.6,4.5-5.2,5.4
	c-0.6,0.2-1.2,0.3-1.8,0.3c-1.9-0.1-3.7-0.7-5.4-1.5c-2.3-1.6-5.3-1.6-7.6,0c-1.7,0.9-3.5,1.4-5.4,1.5c-0.6,0-1.2-0.1-1.8-0.3
	c-2.6-0.8-4-3.2-5.2-5.4c-0.8-2.5-3.2-4.2-5.9-4.2c-2.4-0.5-5.1-1.1-6.7-3.3c-1.6-2.1-1.3-4.9-1.1-7.3c0.2-1.3,0.2-2.6,0-3.9
	c-0.6-1.1-1.3-2.1-2.2-3C1.9,39,0,36.9,0,34.1c0-2.8,1.9-4.9,3.5-6.7c0.9-0.9,1.6-1.9,2.2-3c0.2-1.3,0.2-2.6,0-3.9
	c-0.2-2.4-0.5-5.1,1.1-7.3s4.3-2.8,6.7-3.3c1.3-0.2,2.5-0.6,3.6-1.2c0.9-0.9,1.7-1.9,2.2-3c1.2-2.1,2.6-4.5,5.2-5.4
	C25.1,0.1,25.7,0,26.3,0c1.9,0.1,3.7,0.7,5.4,1.5c2.3,1.6,5.3,1.6,7.6,0C41,0.6,42.8,0.1,44.7,0c0.6,0,1.2,0.1,1.8,0.3
	c2.6,0.8,4,3.2,5.2,5.4c0.8,2.5,3.2,4.2,5.9,4.2c2.4,0.5,5.1,1.1,6.6,3.3s1.3,4.9,1.1,7.3c-0.2,1.3-0.2,2.6,0,3.9
	C66,25.5,66.7,26.5,67.6,27.4z M64.3,30.4c-1.3-1.3-2.4-2.9-3.1-4.6c-0.5-1.9-0.5-3.8-0.2-5.7c0.2-1.7,0.3-3.5-0.2-4.3
	c-0.6-0.8-2.3-1.2-4-1.6c-1.9-0.3-3.7-0.9-5.3-1.9c-1.4-1.2-2.6-2.7-3.4-4.4c-0.9-1.5-1.8-3.1-2.8-3.4c-0.8-0.3-2.5,0.4-4.1,1.1
	c-3.4,2.1-7.7,2.1-11.1,0c-1.6-0.7-3.2-1.4-4.1-1.1c-1,0.3-1.9,1.9-2.8,3.4c-0.8,1.7-2,3.2-3.4,4.4c-1.6,1-3.4,1.7-5.3,1.9
	c-1.7,0.4-3.4,0.8-4,1.6s-0.4,2.6-0.2,4.3c0.3,1.9,0.2,3.8-0.2,5.7c-0.7,1.7-1.8,3.3-3.1,4.6c-1.2,1.3-2.4,2.7-2.4,3.7
	s1.2,2.4,2.4,3.7c1.3,1.3,2.4,2.9,3.1,4.6c0.5,1.9,0.5,3.8,0.2,5.7c-0.2,1.7-0.3,3.5,0.2,4.3c0.6,0.8,2.3,1.2,4,1.6
	c1.9,0.3,3.7,0.9,5.3,1.9c1.4,1.2,2.6,2.7,3.4,4.4c0.9,1.5,1.8,3.1,2.8,3.4c0.8,0.3,2.5-0.4,4.1-1.1c3.4-2.1,7.7-2.1,11.1,0
	c1.6,0.7,3.2,1.4,4.1,1.1c1-0.3,1.9-1.9,2.8-3.4c0.8-1.7,2-3.2,3.4-4.4c1.6-1,3.4-1.7,5.3-1.9c1.7-0.4,3.4-0.8,4-1.6
	c0.6-0.8,0.4-2.5,0.2-4.3c-0.3-1.9-0.2-3.8,0.2-5.7c0.7-1.7,1.7-3.3,3.1-4.6c1.2-1.3,2.4-2.7,2.4-3.7S65.5,31.7,64.3,30.4L64.3,30.4
	z M33.8,41.8L31,44.6l-2.8-2.8l-5.4-5.4c-0.4-0.4-0.4-1,0-1.4l1.4-1.4c0.4-0.4,1-0.4,1.4,0L31,39l14.6-14.6c0.4-0.4,1-0.4,1.4,0
	l1.4,1.4c0.4,0.4,0.4,1,0,1.4L33.8,41.8z"/>
</svg>
