<!-- Generator: Adobe Illustrator 21.1.0, SVG Export Plug-In  -->
<svg version="1.1"
	 xmlns="http://www.w3.org/2000/svg" xmlns:xlink="http://www.w3.org/1999/xlink" xmlns:a="http://ns.adobe.com/AdobeSVGViewerExtensions/3.0/"
	 x="0px" y="0px" width="51px" height="64px" viewBox="0 0 51 64" style="enable-background:new 0 0 51 64;" xml:space="preserve">
<style type="text/css">
	.st0{fill:#EAAC39;}
</style>
<defs>
</defs>
<path id="паспорт_1_" class="st0" d="M47,64H4c-2.2,0-4-1.8-4-4V4c0-2.2,1.8-4,4-4h43c2.2,0,4,1.8,4,4v56
	C51,62.2,49.2,64,47,64z M47,5c0-0.6-0.4-1-1-1H5C4.4,4,4,4.4,4,5v54c0,0.6,0.4,1,1,1h41c0.6,0,1-0.4,1-1V5z M38.1,51h-1v-3.5H36
	v-0.8h3.2v0.8h-1.1V51L38.1,51z M33.7,49.5h-0.6V51h-1v-4.3h1.6c0.4,0,0.9,0.1,1.2,0.4c0.6,0.5,0.6,1.4,0.1,2l-0.1,0.1
	C34.6,49.4,34.2,49.5,33.7,49.5L33.7,49.5z M34.2,47.6c-0.1-0.1-0.3-0.2-0.5-0.2h-0.6v1.3h0.6c0.3,0,0.6-0.2,0.7-0.5v-0.1
	C34.4,47.9,34.3,47.8,34.2,47.6L34.2,47.6z M29.3,51c-1,0-1.8-0.7-1.8-1.7v-0.1v-0.8c0-1,0.7-1.8,1.6-1.8c0.1,0,0.1,0,0.2,0
	c1,0,1.8,0.7,1.8,1.7v0.1v0.8c0,0.5-0.2,1-0.5,1.3S29.8,51,29.3,51L29.3,51z M30.1,48.4c0-0.3-0.1-0.5-0.2-0.8
	c-0.3-0.3-0.8-0.4-1.1-0.1l-0.1,0.1c-0.1,0.2-0.2,0.5-0.2,0.8v0.8c0,0.3,0.1,0.5,0.2,0.8c0.3,0.3,0.8,0.4,1.1,0.1l0.1-0.1
	c0.1-0.2,0.2-0.5,0.2-0.8V48.4z M25.6,47.5H24V51h-1v-4.3h3.5V51h-1L25.6,47.5L25.6,47.5z M21.1,48.1c0-0.2,0-0.4-0.2-0.6
	c-0.2-0.1-0.4-0.2-0.6-0.2c-0.2,0-0.4,0.1-0.5,0.3c-0.1,0.2-0.2,0.5-0.2,0.7v0.9c0,0.3,0.1,0.5,0.2,0.7c0.1,0.2,0.3,0.3,0.6,0.3
	c0.2,0,0.4,0,0.5-0.2s0.2-0.4,0.1-0.6h1l0,0c0,0.4-0.1,0.8-0.4,1.1c-0.3,0.4-0.7,0.5-1.1,0.5c-0.9,0.1-1.7-0.6-1.7-1.5
	c0-0.1,0-0.1,0-0.2v-0.9c0-0.5,0.1-0.9,0.5-1.3c0.3-0.3,0.8-0.5,1.2-0.5s0.9,0.1,1.2,0.4s0.5,0.7,0.4,1.1l0,0H21.1L21.1,48.1z
	 M16.9,50.1h-1.3L15.4,51h-1.1l1.4-4.3h1.1l1.4,4.3h-1L16.9,50.1z M16.2,48L16.2,48l-0.4,1.3h0.8L16.2,48z M12.6,47.5H11V51h-1v-4.3
	h3.6V51h-1V47.5z"/>
<g>
	<path class="st0" d="M30.6,15.6c0,0,1.1-0.4,0.8-1.1c-0.1-0.2-0.6-1.4-0.3-1.6c0.1-0.1,1-0.6,1.1-0.5c0.5,0.1,0.7,0.8,0.9,0.9
		c0.2,0.1,1.3,0.1,1.1,0.9c-0.1,0.3-0.8,0.8-0.4,0.9c0.4-0.1,1.2-0.3,0.5,0.7c0-0.1-0.2-0.3-0.3-0.3c-0.2,0-0.8,0-0.9-0.2
		c0,0.1,0.8,1.1-0.3,1.2c0.4-0.5-0.4-0.8-0.3-1.5c0.1-0.6,0.6-0.7,0.3-1.4c-0.2,0-0.9-0.3-1-0.4c-0.2,0.2,0,0.7,0,0.9
		c0.1,0.3,0.3,0.5,0.1,0.8C31.8,15.5,30.6,15.6,30.6,15.6z"/>
	<path class="st0" d="M20.3,15.6c0,0-1.1-0.4-0.8-1.1c0.1-0.2,0.6-1.4,0.3-1.6c-0.1-0.1-1-0.6-1.1-0.5c-0.5,0.1-0.7,0.8-0.9,0.9
		c-0.2,0.1-1.3,0.1-1.1,0.9c0.1,0.3,0.8,0.8,0.4,0.9c-0.4-0.1-1.2-0.3-0.5,0.7c0-0.1,0.2-0.3,0.3-0.3c0.2,0,0.8,0,0.9-0.2
		c0,0.1-0.8,1.1,0.3,1.2c-0.4-0.5,0.4-0.8,0.3-1.5c-0.1-0.6-0.6-0.7-0.3-1.4c0.2,0,0.9-0.3,1-0.4c0.2,0.2,0,0.7,0,0.9
		c-0.1,0.3-0.3,0.5-0.1,0.8C19.2,15.5,20.3,15.6,20.3,15.6z"/>
	<g>
		<path class="st0" d="M37.8,19.8c0.1-0.4-0.7-0.2-1.1-0.2c0.4-0.2,1-0.8,0.9-1.4c0-0.4-0.8-0.2-1.2,0c0,0,1.4-1.4,0.6-2.3
			c-0.2-0.3-1.4,1.3-1.6,1.3c0-0.1,0.5-0.7,0.7-1.1c0.8-1.7,0-2.5-0.3-2.3c-0.6,0.3,0.3,0.5-2.1,3.4c0,0-0.2,0.1-0.3,0.1
			c0,0-0.3,0.4-0.4,0.6c-0.1,0.3-0.6,0.8-0.6,0.7c-0.4-0.1-0.4,0.1-1,0.7c-0.6,0.5-1.3,1.2-1.2,1.8c0.1,0.5,1.3,1.1,0.4,1.8
			c-0.6,0.5-1.6,0-1.5-0.3c0-0.1,0.9-0.3,0.4-1.2c-0.3,0.3-1.1,0.3-1.3-0.1c0.4,0,0.7-0.1,0.7-0.6c-0.7,0.2-1.1-0.3-1.2-0.8
			c-0.1-0.4,0.3-1.1,0.5-1.4c0.1-0.2,0.4-0.5,0.4-0.5s0.2,0.2,0.7-0.1c0.1,0,1.2,0,1.1,0.7c0.7-0.4-0.2-0.8-0.3-0.9
			c0.7,0.1,1.2,1.3,2,0c0,0-0.3,0.3-0.7,0.1c-0.3-0.1-1-0.5-1.4-0.5c0.1-0.1,0.4-0.5,1.4,0.1c0.8-1.3-0.7-1.5-0.7-1.5
			c0-0.3-0.3-0.3-0.3-0.3s0-0.2-0.2-0.3c1-1.8-0.7-1.7-0.7-1.7c0.1-0.1,0.1-0.2,0-0.3L29.4,13l0.2,0.1v-0.5c0,0-0.2,0.2-0.2,0.1
			l0.2-0.3H29l0.2,0.2L29,12.5V13l0.2-0.1l-0.1,0.3c-0.2,0.2,0,0.3,0,0.4c-1.6,0.4-0.6,1.6-0.6,1.9c-0.6-0.3-1.3-0.8-1.7-1.1v-0.5
			c1.7-2.3-0.8-2.5-0.8-2.5c0,0.3-0.2,0.2-0.2,0c0.1,0,0.3-0.5-0.1-0.6h0.2l-0.2-0.3l0.3,0.1V10l-0.3,0.2l0.1-0.3h-0.3h-0.3
			c0,0.1,0.1,0.2,0.1,0.3c-0.1-0.1-0.2-0.1-0.3-0.2c0,0.2,0,0.4,0,0.6c0.1,0,0.2-0.1,0.3-0.1c-0.1,0.1-0.1,0.2-0.2,0.3
			c0.1,0,0.2,0,0.2,0c-0.3,0.1-0.3,0.5-0.1,0.7c-0.1,0,0,0.2-0.1,0.1c-0.3-0.2-0.6-0.1-0.8,0c-0.3,0.1-0.6,0.4-0.6,0.8
			c-0.1,0.6,0.1,1,0.5,1.4c0.1,0.1,0.1,0.3,0.1,0.4c0,0.4-0.5,0.6-0.9,0.8c-0.2,0.1-0.4,0.2-0.6,0.3c0,0,0,0-0.1,0
			c0,0-0.1,0.1-0.2,0.1c0.1-0.4,0.4-0.9,0.2-1.3c-0.2-0.3-0.6-0.4-0.9-0.4c0.1-0.1,0.1-0.2,0-0.3c0-0.1-0.1-0.2-0.2-0.3
			c0.1,0,0.2,0.1,0.2,0.1c0-0.2,0-0.3,0-0.5c-0.1,0-0.2,0.1-0.2,0.1c0.1-0.1,0.1-0.1,0.2-0.2c-0.2,0-0.4,0-0.6,0
			c0.1,0.1,0.1,0.2,0.2,0.3c-0.1,0-0.1-0.1-0.2-0.1c0,0.2,0,0.3,0,0.5c0.1,0,0.1-0.1,0.2-0.1c-0.1,0.2-0.2,0.4-0.1,0.6
			c-0.4,0-0.8,0.1-1,0.5c-0.1,0.4,0.1,0.9,0.3,1.2c-0.1,0.1-0.2,0.2-0.2,0.3h-0.1c-0.1,0.1-0.1,0.2-0.2,0.2
			c-0.4,0.1-0.8,0.3-0.9,0.7c-0.1,0.3,0,0.6,0.3,0.8c0.4-0.3,1-0.4,1.4-0.1c-0.1,0-0.1,0-0.2,0c-0.3,0-0.6,0.2-0.8,0.3
			s-0.3,0.2-0.5,0.2s-0.4,0-0.6-0.1l0,0l0,0c0.2,0.3,0.6,0.6,1,0.5s0.6-0.5,1-0.5c-0.1,0.2-0.3,0.2-0.4,0.4
			c-0.1,0.2,0.1,0.4,0.2,0.5c-0.1-0.4,0.3-0.5,0.6-0.6c0.1-0.1,0.2-0.1,0.3-0.1c0.3,0,0.6,0.3,0.8,0.1c0.4,0.5,0.9,1.1,0.9,1.8
			c0,0.6-0.6,1.1-1.2,0.9c0,0.4,0.4,0.6,0.7,0.6c-0.3,0.4-1,0.4-1.3,0.1c-0.1,0.1-0.1,0.2-0.1,0.4c0,0.4,0.4,0.6,0.6,0.9
			c-0.2,0.4-0.7,0.4-1.1,0.3c-0.4-0.1-0.7-0.4-0.7-0.8c0-0.4,0.3-0.6,0.5-1c0.1-0.3,0.1-0.7-0.1-0.9c-0.5-0.7-1.1-1.1-1.7-1.7
			c-0.1-0.1-0.3-0.1-0.4-0.1c-0.1,0-0.1,0-0.2-0.1c-0.3-0.4-0.5-1-1-1.2c-0.1-0.1-1.9-3-1.9-3.1c-0.1-0.3-0.3-0.4-0.5-0.2
			c-0.7,0.9-0.1,2,0,2.1c0.2,0.4,0.8,1.1,0.8,1.2c-0.1,0-0.6-0.4-0.7-0.6c-0.1-0.1-0.7-0.9-1-0.8c-0.4,0.8,0.1,1.7,0.6,2.3
			c-0.3-0.2-1.2-0.6-1.1,0.1c0.1,0.5,0.5,1,0.9,1.2c-0.2,0-1.3-0.2-1.2,0.3c0.2,0.5,0.7,0.8,1.2,1.1l0,0c-0.2-0.1-0.5,0-0.7,0
			s-0.4,0.2-0.4,0.4c0.1,0.6,0.9,0.5,1.3,0.9c0,0.1-0.2,0.1-0.3,0.1c-0.3,0-0.6,0.2-0.8,0.4c0.1,0.5,0.9,0.6,1.2,0.7
			c-0.1,0-0.2,0.2-0.2,0.2h-0.2c-0.1,0.1-0.3,0.3-0.2,0.9l-0.4-0.1c0,0-0.3,0.8,0.6,1.1c0.1,0,0.5,0.4,0.5,0.2
			c0.2,0-0.1,0.3,0.3,0.3c0,0.2,0,0.3,0.2,0.3c0.1,0,1.5,3.5,1.5,3.6c-0.1,0.4,0.2,0.4,0.2,0.4c-0.2,0.5,0.3,0.7,0.2,0.8
			c-0.2,0.4,0.1,0.3,0.2,0.4l0.1,0.5c-0.7,0.6-0.1,0.8-0.1,0.9c-0.1,0.5,0.4,0.5,0.4,0.5c-0.1,0.4,0.7,0.3,0.7,0.5
			c-0.2,0.4,0.2,0.5,0.2,0.5c0,0.2,0.3,0.2,0.3,0.3c0.3,0.2,0.4,0,0.4-0.2c0.1-0.1,0.1-0.3-0.1-0.3c0.3-0.3-0.1-0.5-0.1-0.5
			c0.1-0.1,0-0.3,0-0.3c0.3,0,0.6-0.5,0.9-0.6c1-0.5,1.4-0.4,2.2-0.4c0.1,0,0.8,0.1,0.8-0.2s-0.4-0.6-0.4-0.7
			c0.4,0.1,0.8-0.1,0.8-0.4c0,0-0.6,0-0.7-0.2c-0.3-0.4,0.1-0.8,0.6-1c0.7-0.2,1.3,0.4,1.2,1c0,0.3-0.3,0.4-0.6,0.6
			c0,0.1-0.1,0.1-0.2,0.2c-0.1,0.1-0.1,0.2-0.2,0.3c0.2-0.1,0.5-0.1,0.8-0.1c-0.9,0.2-1.6,1-2.4,1.3c-0.1,0-0.2,0.1-0.3,0
			s-0.1-0.2-0.1-0.4c0,0-0.5-0.2-0.6,0.5c0,0.3,0,0.4,0.2,0.7v0.1c-0.3,0.1-0.4,0.4-0.4,0.8c0.1,0.3,0.3,0.4,0.4,0.7
			c0,0.1,0,0.2,0,0.3c0.3,0,0.4-0.3,0.5-0.5v-0.1c0,0,0,0,0,0.1c0.1,0.3,0.3,0.6,0.6,0.7c0.3,0.1,0.8,0,1-0.1c0,0.3,0.4,0.4,0.6,0.6
			c0.4,0.2,0.8,0.1,1.1-0.1c0,0.4,0.4,0.5,0.6,0.7l0,0l0,0l0,0l0,0c0.3-0.2,0.7-0.3,0.6-0.7c0.1,0,0.5,0.4,1.2,0
			c0.2-0.1,0.5-0.4,0.5-0.5c0,0,0.5,0.3,1,0.1c0.4-0.2,0.5-0.4,0.6-0.8c0,0.6,0.5,0.6,0.4,0.6c-0.1-0.5,0.4-0.5,0.4-0.9
			c0.1-0.8-0.5-0.8-0.4-0.9c0.6-0.9-0.3-1.2-0.3-1.1c-0.1,0.8-0.6,0.4-0.9,0.2c-0.5-0.4-1.5-0.9-2-1.1c0.3,0,0.5-0.1,0.8,0.1
			c-0.1-0.7-0.9-0.5-0.9-1.1c0-0.5,0.3-1,0.9-1.1c0.5-0.1,1,0.2,0.9,0.8c0,0.5-0.7,0.3-0.8,0.3c-0.1,0.2,0.2,0.6,0.9,0.5
			c0,0.3-0.3,0.6-0.2,0.8c0.6,0.4,1.1-0.1,2.3,0.4c0.4,0.2,0.8,0,1.2,0.3s0.7,0.6,1.1,0.6c0.1,0,0.2-0.2,0.5-0.2
			c0.3-0.1,0.5,0.1,0.6-0.1c0.1-0.2-0.1,0,0.7-0.4c0.1,0-0.1-0.2,0.1-0.3c0.5-0.2,0.6-0.8,0.6-0.8c0.5-0.4,0.1-0.6,0.1-0.8
			c-0.1-0.3-0.1-0.4-0.3-0.7c-0.3-0.5-1.2-0.6-1.2-1l0.3,0.2v-0.7L34.1,29l0.2-0.4h-0.6l0.1,0.4l-0.3-0.2c0,0.6,0,0.7,0,0.7
			c0.1,0,0.3-0.2,0.3-0.2c-0.1,0.4-0.6,0.4-1,0.8c-0.3,0.3-0.5,0.8-0.5,0.8c-0.2,0.2-0.2,0.4,0,0.6c0,0,0.1,0.3,0.3,0.5
			c0,0-0.1,0.3-0.8,0.3c-0.4,0-2.3-0.5-2-1c0-0.1,0.4,0.3,0.3,0c0.3,0.3,0.3,0.2,0.5,0.2c0-0.2,0-0.4,0-0.7c0.3,0,0.5,0.4,1,0
			c0,0-0.6-0.3-0.4-1.1c0.1-0.3,0.1-1.2-1-1.4c-1-0.1-1.1-0.5-1.1-0.5c0.4-0.1-0.3-1.3,0.3-2c0,0.2,0.6,0.2,0.6,0.4l0.2-0.1
			c0,0.3,0,1.1,0.1,1.3c0,0.1,0.5,0.4,0.5,0.4c0.1-0.1,0.6-0.3,0.6-0.4c0-0.4-0.2-0.9-0.1-1.3c0.2,0.4,0.4,1.3,0.5,1.6
			s0.6,0.2,0.7,0.3c0.2-0.1,0.3-0.3,0.4-0.4c0.2-0.7-0.7-1.6-0.6-1.9c0.3,0.3,0.9,1.9,1.2,1.8h0.6c0,0.1,0.1-0.3,0.2-0.6
			c0-0.3-1.1-1.7-1.1-1.7c0.3,0.1,1,1.5,1.6,1.7c0.1,0,0.6,0,0.7-0.1c0,0,0.1-0.4,0-0.6c-0.1-0.3-0.5-0.6-0.8-0.8
			c0.4,0.2,1,0.9,1.7,0.4c0.2-0.5-0.3-1-0.7-1.2c0,0,1,0.2,1.4-0.3c0-0.2-0.5-0.6-0.6-0.7c0-0.1,1-0.2,1.1-0.7c0-0.3-1.1-0.5-1-0.5
			c0.2-0.2,1.1-0.5,1.2-0.8c0.2-0.6-0.7-0.5-1.1-0.6C37,20.8,37.7,20.2,37.8,19.8z M21.2,28.2c-0.3,0.1-0.6,0.1-0.9,0.3
			c-0.3,0.2-0.5,0.5-0.5,0.8s0.1,0.7,0,1c-0.1,0.2-0.2,0.4-0.4,0.5c0.3,0.3,0.6,0,0.9,0c0.1,0.2,0,0.5,0,0.7c0-0.1,0.1,0,0,0
			c0.2,0,0.4-0.1,0.5-0.2c0,0.1,0,0.1,0,0.1c0.1-0.1,0.3-0.1,0.4,0c0,0,0,0.1,0,0.2c-0.3,0.4-0.8,0.5-1.2,0.7
			c-0.4,0.1-0.9-0.1-1.1-0.6c-0.4-0.6-0.5,0-0.5-0.2c0,0-0.2-0.1-0.3,0l-0.2-0.2c0.2-0.3-0.1-0.3-0.1-0.4c0,0,0.1-0.3-0.4-0.7
			c-0.1-0.1,0.2-0.2-0.1-0.4c0,0-1.9-3.4-1.8-3.4c0.2-0.2,0-0.3,0-0.3v-0.2c0.4,0,1-0.7,0.9-0.6c-0.2,0.2-0.5,0.5-0.6,0.8
			c-0.1,0.1,0,0.6,0,0.7c0.1,0.1,0.7,0.2,0.7,0.2c0.4-0.4,1.3-1.5,1.3-1.6c0.1,0-0.7,0.9-1,1.5c-0.1,0.3,0.1,0.8,0.2,0.8
			c0.1,0,0.5,0,0.7-0.1c0.4-0.4,0.9-1.5,1.1-1.6c0,0-0.8,1.3-0.7,1.7c0.1,0.2,0.3,0.6,0.5,0.6c0.3,0,0.6-0.1,0.7-0.4
			c0.1-0.5,0.2-1.1,0.4-1.5l0,0l0,0c0,0.2-0.1,0.8-0.1,1.1s0.3,0.3,0.5,0.5c0.1,0.1,0.6-0.2,0.7-0.4c0.1-0.4,0-0.8,0-1.2
			c0.1,0,0.1,0.1,0.2,0.1c0.4-0.2,0.5-0.1,0.6-0.4c0.3,0.3,0.3,0.8,0.2,1.2c0,0.2-0.1,0.7,0.2,0.7C21.9,28.1,21.5,28.2,21.2,28.2z
			 M26.8,15.7c-0.1,0.2,0.5,0.4,0.7,0.5c-0.2,0-0.6-0.1-0.6,0.1c0,0.2,0.3,0.1,0.3,0.3c0,0.4-1.2,0.3-1.1,0.6c0,0.2,0.4,0.1,0.4,0.1
			c-0.3,0.5-0.5,0.7-0.8,1.6c0,0.1,0,0.1,0,0.1c0,0.2-0.1,0.7-0.2,0.8c0-0.1,0-0.1-0.1-0.2c0,0.1,0,0.1-0.1,0.2
			c-0.1-0.2-0.1-0.6-0.2-0.8v-0.1c-0.3-0.8-0.5-1-0.8-1.6c0-0.1,0.4,0.1,0.4-0.1c0.1-0.3-1-0.3-1.1-0.6c0-0.1,0.3-0.1,0.3-0.3
			s-0.4-0.1-0.6-0.1c0.2-0.1,0.8-0.3,0.7-0.5c-0.1-0.1-0.6,0-0.8,0c1.7-0.7,1.5-0.9,1.6-0.9s0.3,0,0.5,0s0.5,0,0.5,0
			c0.2,0,0,0.2,1.6,0.9C27.4,15.7,26.9,15.6,26.8,15.7z"/>
		<path class="st0" d="M22.4,18.1c0,0.1,0.1,0.1,0.1,0.2C22.5,18.2,22.5,18.1,22.4,18.1z"/>
		<path class="st0" d="M22.7,15.5C22.7,15.4,22.7,15.4,22.7,15.5C22.7,15.4,22.7,15.4,22.7,15.5C22.7,15.4,22.8,15.4,22.7,15.5
			C22.7,15.4,22.7,15.4,22.7,15.5c-0.1,0-0.2,0-0.2,0.1C22.6,15.5,22.6,15.5,22.7,15.5L22.7,15.5z"/>
		<path class="st0" d="M14.6,18.2L14.6,18.2L14.6,18.2z"/>
		<path class="st0" d="M20.8,17.4L20.8,17.4c0.1,0,0.1,0,0.2,0C20.9,17.4,20.8,17.4,20.8,17.4z"/>
		<path class="st0" d="M21.5,35.2C21.5,35.3,21.5,35.3,21.5,35.2C21.5,35.3,21.5,35.3,21.5,35.2L21.5,35.2L21.5,35.2z"/>
	</g>
</g>
</svg>
