<svg
 xmlns="http://www.w3.org/2000/svg"
 xmlns:xlink="http://www.w3.org/1999/xlink"
 width="58px" height="66px" viewBox="0 0 58 66">
<path fill-rule="evenodd"  fill="rgb(234, 172, 57)"
 d="M55.565,18.857 C54.901,18.857 54.458,18.638 54.015,18.199 L52.687,16.884 L50.968,18.586 C55.344,23.621 58.000,30.158 58.000,37.276 C58.000,53.063 44.939,66.000 29.000,66.000 C13.061,66.000 -0.000,53.063 -0.000,37.276 C-0.000,30.158 2.656,23.621 7.032,18.586 L5.313,16.884 L3.985,18.199 C3.542,18.638 3.099,18.857 2.435,18.857 C1.771,18.857 1.328,18.638 0.886,18.199 C-0.000,17.322 -0.000,16.006 0.886,15.129 L6.862,9.209 C7.748,8.332 9.077,8.332 9.962,9.209 C10.847,10.087 10.847,11.402 9.962,12.279 L8.412,13.814 L10.131,15.516 C13.816,12.374 18.297,10.128 23.222,9.130 C22.811,8.292 22.580,7.351 22.580,6.359 C22.580,2.850 25.458,-0.000 29.000,-0.000 C32.542,-0.000 35.420,2.850 35.420,6.359 C35.420,7.351 35.189,8.292 34.778,9.130 C39.702,10.127 44.184,12.374 47.868,15.516 L49.588,13.814 L48.038,12.279 C47.153,11.402 47.153,10.086 48.038,9.209 C48.924,8.332 50.252,8.332 51.137,9.209 L54.234,12.277 C54.235,12.278 54.236,12.278 54.237,12.279 C54.237,12.280 54.238,12.280 54.239,12.281 L57.114,15.129 C58.000,16.006 58.000,17.322 57.114,18.199 C56.672,18.638 56.229,18.857 55.565,18.857 ZM29.000,4.605 C27.893,4.605 27.008,5.482 27.008,6.579 C27.008,7.428 27.541,8.144 28.296,8.425 C28.513,8.364 28.748,8.332 29.000,8.332 C29.252,8.332 29.488,8.365 29.705,8.425 C30.459,8.144 30.992,7.428 30.992,6.579 C30.992,5.482 30.107,4.605 29.000,4.605 ZM31.214,12.818 L31.214,16.665 C31.214,17.980 30.328,18.858 29.000,18.858 C27.671,18.858 26.786,17.980 26.786,16.665 L26.786,12.818 C14.963,13.879 5.474,23.344 4.510,35.083 L8.412,35.083 C9.741,35.083 10.626,35.960 10.626,37.276 C10.626,38.592 9.519,39.468 8.412,39.468 L4.549,39.468 C5.711,51.004 15.111,60.247 26.786,61.294 L26.786,57.668 C26.786,56.352 27.671,55.475 29.000,55.475 C30.328,55.475 31.214,56.352 31.214,57.668 L31.214,61.294 C42.889,60.247 52.288,51.004 53.451,39.469 L49.588,39.469 C48.260,39.469 47.374,38.592 47.374,37.276 C47.374,35.960 48.260,35.083 49.588,35.083 L53.490,35.083 C52.526,23.344 43.037,13.879 31.214,12.818 ZM43.389,39.468 L34.939,39.468 C33.978,41.783 31.680,43.415 29.000,43.415 C25.458,43.415 22.580,40.565 22.580,37.057 C22.580,34.319 24.332,31.981 26.786,31.087 L26.786,22.805 C26.786,21.488 27.671,20.611 29.000,20.611 C30.328,20.611 31.213,21.489 31.213,22.805 L31.213,31.087 C33.050,31.757 34.492,33.234 35.102,35.083 L43.389,35.083 C44.718,35.083 45.603,35.960 45.603,37.275 C45.603,38.592 44.718,39.468 43.389,39.468 ZM30.864,36.578 C30.580,35.831 29.858,35.302 29.000,35.302 C27.892,35.302 27.007,36.179 27.007,37.276 C27.007,38.372 27.893,39.250 29.000,39.250 C29.858,39.250 30.580,38.721 30.864,37.974 C30.803,37.759 30.771,37.525 30.771,37.276 C30.771,37.027 30.803,36.793 30.864,36.578 Z"/>
</svg>
