<svg
 xmlns="http://www.w3.org/2000/svg"
 xmlns:xlink="http://www.w3.org/1999/xlink"
 width="71px" height="51px" viewBox="0 0 71 51">
<path fill-rule="evenodd"  fill="rgb(234, 172, 57)"
 d="M65.186,51.000 L5.761,51.000 C2.585,51.000 0.000,46.402 0.000,43.209 L0.000,41.140 C0.000,40.049 0.874,39.168 1.963,39.131 L1.963,5.513 C1.963,2.473 4.470,-0.000 7.550,-0.000 L63.397,-0.000 C64.872,-0.000 66.273,0.567 67.343,1.596 C68.434,2.646 69.035,4.037 69.035,5.513 L69.035,39.131 C70.126,39.167 71.000,40.049 71.000,41.140 L71.000,43.209 C71.000,46.402 68.392,51.000 65.186,51.000 ZM64.971,5.513 C64.971,4.723 64.235,4.031 63.397,4.031 L7.550,4.031 C6.725,4.031 6.028,4.709 6.028,5.513 L6.028,39.124 L64.971,39.124 L64.971,5.513 ZM66.935,43.209 L66.935,43.155 L4.064,43.155 L4.064,43.209 C4.064,44.179 4.826,46.969 5.761,46.969 L65.186,46.969 C66.134,46.969 66.936,44.163 66.936,43.209 L66.935,43.209 ZM35.500,4.898 C36.035,4.898 36.559,5.113 36.937,5.488 C37.315,5.864 37.532,6.383 37.532,6.913 C37.532,7.444 37.315,7.964 36.937,8.339 C36.558,8.713 36.035,8.929 35.500,8.929 C34.965,8.929 34.441,8.713 34.064,8.339 C33.685,7.964 33.468,7.445 33.468,6.913 C33.468,6.383 33.685,5.864 34.064,5.488 C34.441,5.113 34.965,4.898 35.500,4.898 Z"/>
</svg>
