<?xml version="1.0" encoding="utf-8"?>
<!-- Generator: Adobe Illustrator 18.0.0, SVG Export Plug-In . SVG Version: 6.00 Build 0)  -->
<!DOCTYPE svg PUBLIC "-//W3C//DTD SVG 1.1//EN" "http://www.w3.org/Graphics/SVG/1.1/DTD/svg11.dtd">
<svg version="1.1" id="Layer_1" xmlns="http://www.w3.org/2000/svg" xmlns:xlink="http://www.w3.org/1999/xlink" x="0px" y="0px"
	 viewBox="0 0 15 22" style="enable-background:new 0 0 15 22;" xml:space="preserve">
<style type="text/css">
	.st0{fill:#EAAC39;}
</style>
<g>
	<path class="st0" d="M2.3,2.2C3.7,0.7,5.4,0,7.5,0s3.8,0.7,5.2,2.2s2.2,3.2,2.2,5.2c0,1-0.4,2.3-1.1,3.9c-0.5,1.3-1.3,2.8-2.3,4.4
		c-0.5,0.9-1,1.7-1.6,2.6c-0.6,0.9-1,1.6-1.3,2L8.2,21l-0.7,1l-0.7-1c-1.1-1.6-2.2-3.4-3.3-5.3c-1-1.6-1.7-3.1-2.3-4.4
		C0.5,9.7,0.1,8.4,0.1,7.4C0.1,5.3,0.8,3.6,2.3,2.2z M11.6,3.3c-1.1-1.1-2.5-1.7-4.1-1.7c-1.6,0-3,0.6-4.1,1.7
		C2.3,4.4,1.7,5.8,1.7,7.4c0,0.7,0.3,1.8,0.9,3.3c0.5,1.1,1.3,2.5,2.3,4.2c0.9,1.5,1.7,2.8,2.6,4.1c0.9-1.3,1.7-2.6,2.6-4.1
		c1-1.7,1.7-3.1,2.3-4.2c0.6-1.5,0.9-2.6,0.9-3.3C13.3,5.8,12.7,4.4,11.6,3.3z"/>
</g>
<circle class="st0" cx="7.5" cy="7.1" r="1.8"/>
</svg>
