<?xml version="1.0" encoding="utf-8"?>
<!-- Generator: Adobe Illustrator 18.0.0, SVG Export Plug-In . SVG Version: 6.00 Build 0)  -->
<!DOCTYPE svg PUBLIC "-//W3C//DTD SVG 1.1//EN" "http://www.w3.org/Graphics/SVG/1.1/DTD/svg11.dtd">
<svg version="1.1" id="Layer_1" xmlns="http://www.w3.org/2000/svg" xmlns:xlink="http://www.w3.org/1999/xlink" x="0px" y="0px"
	 viewBox="0 0 23 23" style="enable-background:new 0 0 23 23;" xml:space="preserve">
<style type="text/css">
	.st0{fill:#EAAC39;}
</style>
<path id="Forma_1" class="st0" d="M19,13.7c-0.8-0.8-2.1-0.8-2.9,0c0,0,0,0,0,0L14.7,15c-0.6,0.6-1.6,0.6-2.2,0c0,0,0,0,0,0h0
	l-4.7-4.7C7.2,9.7,7.2,8.6,7.8,8c0,0,0,0,0,0l1.3-1.4c0.8-0.8,0.8-2.2,0-3l-2.9-3c-0.8-0.8-2.1-0.8-3,0c0,0-1,1-1,1
	c-3,3-3.1,7.8-0.2,10.9c0,0,0,0,0.1,0.1l8.1,8.2c3,3,7.7,3,10.7,0c0,0,0,0,0.1-0.1l0,0l1-1c0.7-0.7,1.5-1.9,0.7-2.7 M4.2,1.6
	c0.3-0.3,0.7-0.3,1,0c0,0,0,0,0,0l3,3c0.3,0.3,0.3,0.7,0,1c0,0,0,0,0,0L7.7,6.1l-3.9-4L4.2,1.6z M11.2,19.8l-8.1-8.2
	C0.9,9.3,0.8,5.6,2.8,3.2l3.9,4c-1,1.2-1,3,0.1,4.1l4.7,4.7c1.1,1.1,2.9,1.2,4.1,0.1l3.9,4C17.1,22.2,13.5,22,11.2,19.8L11.2,19.8z
	 M21,18.7l-0.5,0.5l-3.9-4l0.5-0.5c0.3-0.3,0.7-0.3,1,0l3,3C21.3,17.9,21.3,18.4,21,18.7z"/>
</svg>
