<svg
 xmlns="http://www.w3.org/2000/svg"
 xmlns:xlink="http://www.w3.org/1999/xlink"
 width="21px" height="22px" viewBox="0 0 21 22">
<path fill-rule="evenodd"  fill="rgb(51, 78, 154)"
 d="M3.439,0.408 L3.389,0.459 L3.389,0.509 L0.874,3.078 L0.874,3.129 C0.034,3.868 -0.200,4.774 0.169,5.849 C1.376,9.241 3.322,12.297 6.006,15.017 C8.488,17.468 11.541,19.417 15.164,20.860 C16.203,21.195 17.143,20.994 17.982,20.255 L18.032,20.255 L20.497,17.737 C20.832,17.402 21.001,16.981 21.001,16.478 C21.001,15.974 20.832,15.554 20.497,15.218 L17.277,11.994 L17.227,11.893 C16.891,11.591 16.472,11.440 15.969,11.440 C15.465,11.440 15.045,11.591 14.711,11.893 L14.661,11.944 L13.101,13.506 C11.859,12.935 10.769,12.196 9.830,11.289 C8.891,10.382 8.136,9.274 7.566,7.965 L9.176,6.353 C9.511,6.017 9.679,5.606 9.679,5.118 C9.679,4.632 9.494,4.237 9.126,3.935 L9.176,3.884 L9.126,3.834 L5.905,0.509 L5.855,0.459 L5.805,0.408 C5.435,0.140 5.041,0.006 4.622,0.006 C4.202,0.006 3.809,0.140 3.439,0.408 L3.439,0.408 ZM4.798,1.718 L8.018,4.993 L8.069,5.043 L8.119,5.043 C8.152,5.111 8.119,5.177 8.018,5.244 L6.006,7.259 L5.653,7.612 L5.805,8.115 L6.107,8.770 C6.308,9.241 6.642,9.837 7.113,10.559 C7.582,11.281 8.119,11.911 8.723,12.447 L8.874,12.599 C10.115,13.741 11.473,14.614 12.950,15.218 L13.453,15.470 L13.855,15.118 L15.868,13.102 C15.935,13.002 16.002,13.002 16.069,13.102 L19.390,16.377 C19.457,16.445 19.457,16.528 19.390,16.629 L16.925,19.046 C16.555,19.383 16.136,19.467 15.667,19.299 C12.278,17.956 9.444,16.142 7.163,13.858 C4.613,11.306 2.786,8.452 1.678,5.295 C1.544,4.859 1.645,4.506 1.980,4.237 L1.980,4.187 L4.446,1.718 C4.513,1.651 4.572,1.617 4.622,1.617 C4.672,1.617 4.731,1.651 4.798,1.718 L4.798,1.718 Z"/>
</svg>
