<svg
 xmlns="http://www.w3.org/2000/svg"
 xmlns:xlink="http://www.w3.org/1999/xlink"
 width="57px" height="63px" viewBox="0 0 57 63">
<path fill-rule="evenodd"  fill="rgb(234, 172, 57)"
 d="M50.543,63.000 L6.902,63.000 C3.785,63.000 -0.000,60.329 -0.000,56.990 L-0.000,12.467 C-0.000,9.127 3.785,6.456 6.902,6.456 L14.027,6.456 C15.141,4.230 18.035,2.671 20.484,2.671 L26.051,2.671 L26.051,2.226 C26.051,0.890 26.941,-0.000 28.277,-0.000 C29.613,-0.000 30.504,0.890 30.504,2.226 L30.504,2.894 L36.070,2.894 C38.742,2.894 41.414,4.452 42.527,6.678 L49.652,6.678 C52.769,6.678 57.000,8.905 57.000,12.467 L57.000,56.990 C57.000,60.106 53.883,63.000 50.543,63.000 ZM38.743,8.682 C38.743,8.237 37.406,7.124 36.293,7.124 L20.707,7.124 C19.371,7.124 18.035,8.237 18.035,8.905 L18.035,10.240 L38.743,10.240 L38.743,8.682 ZM44.754,11.131 L43.196,11.131 L43.196,12.689 C43.196,14.025 42.304,14.915 40.969,14.915 L15.808,14.915 C14.473,14.915 13.582,14.025 13.582,12.689 L13.582,11.131 L12.246,11.131 L12.246,50.979 L44.754,50.979 L44.754,11.131 ZM52.324,57.212 L52.324,12.689 C52.324,12.244 50.766,11.131 49.652,11.131 L49.207,11.131 L49.207,53.205 C49.207,54.541 48.316,55.432 46.980,55.432 L10.019,55.432 C8.683,55.432 7.793,54.541 7.793,53.205 L7.793,11.131 L6.902,11.131 C5.789,11.131 4.453,12.244 4.453,12.689 L4.453,57.212 C4.453,57.657 5.789,58.770 6.902,58.770 L50.543,58.770 C51.434,58.770 52.547,57.880 52.547,57.212 L52.324,57.212 ZM19.371,26.491 L19.817,26.936 L24.047,22.707 C24.938,21.816 26.273,21.816 27.164,22.707 C28.055,23.597 28.055,24.933 27.164,25.823 L21.375,31.611 C20.930,32.056 20.484,32.279 19.817,32.279 C19.149,32.279 18.703,32.057 18.258,31.611 L16.254,29.608 C15.363,28.717 15.363,27.382 16.254,26.491 C17.144,25.601 18.481,25.601 19.371,26.491 ZM19.594,39.848 L20.039,40.294 L24.269,36.064 C24.938,35.173 26.496,35.173 27.387,36.063 C28.277,36.954 28.277,38.289 27.387,39.180 L21.598,44.968 C21.152,45.413 20.707,45.636 20.039,45.636 C19.372,45.636 18.926,45.413 18.481,44.968 L16.477,42.965 C15.586,42.075 15.586,40.739 16.477,39.848 C17.367,38.958 18.703,38.958 19.594,39.848 ZM30.504,27.827 L40.078,27.827 C41.414,27.827 42.304,28.717 42.304,30.053 C42.304,31.389 41.414,32.279 40.078,32.279 L30.504,32.279 C29.168,32.279 28.277,31.389 28.277,30.053 C28.277,28.717 29.168,27.827 30.504,27.827 ZM30.504,41.184 L40.078,41.184 C41.414,41.184 42.304,42.075 42.304,43.410 C42.304,44.746 41.414,45.636 40.078,45.636 L30.504,45.636 C29.168,45.636 28.277,44.746 28.277,43.410 C28.277,42.075 29.168,41.184 30.504,41.184 Z"/>
</svg>
