<svg
 xmlns="http://www.w3.org/2000/svg"
 xmlns:xlink="http://www.w3.org/1999/xlink"
 width="59px" height="60px" viewBox="0 0 59 60">
<path fill-rule="evenodd"  fill="rgb(234, 172, 57)"
 d="M57.831,59.664 C57.562,59.786 57.282,59.844 57.005,59.844 C56.246,59.844 55.520,59.408 55.185,58.671 L53.151,54.191 L37.044,54.191 L38.327,57.015 C38.783,58.021 38.339,59.207 37.335,59.664 C36.331,60.121 35.147,59.676 34.690,58.671 L9.324,2.828 C9.043,2.209 9.095,1.489 9.463,0.917 C9.831,0.345 10.463,0.000 11.143,0.000 C11.143,0.000 11.143,0.000 11.144,0.000 L25.053,0.007 C29.845,0.010 34.223,2.834 36.206,7.202 L58.822,57.015 C59.279,58.021 58.835,59.207 57.831,59.664 ZM32.569,8.857 C31.232,5.913 28.281,4.009 25.051,4.007 L14.247,4.001 L20.054,16.787 L36.169,16.787 L32.569,8.857 ZM37.985,20.787 L21.871,20.787 L25.112,27.922 L41.224,27.922 L37.985,20.787 ZM43.041,31.921 L26.928,31.921 L30.169,39.057 L46.280,39.057 L43.041,31.921 ZM48.096,43.056 L31.986,43.056 L35.227,50.191 L51.336,50.191 L48.096,43.056 ZM16.566,29.223 L7.537,50.191 L23.684,50.191 L24.856,47.473 L27.089,52.390 L24.331,58.790 C24.005,59.546 23.268,59.999 22.495,59.999 C22.231,59.999 21.963,59.946 21.705,59.835 C20.692,59.397 20.225,58.221 20.662,57.206 L21.961,54.191 L5.815,54.191 L3.835,58.790 C3.510,59.546 2.774,59.999 2.000,59.999 C1.736,59.999 1.468,59.946 1.210,59.835 C0.197,59.398 -0.271,58.221 0.166,57.207 L14.332,24.306 L16.566,29.223 Z"/>
</svg>
