<svg
 xmlns="http://www.w3.org/2000/svg"
 xmlns:xlink="http://www.w3.org/1999/xlink"
 width="58px" height="58px" viewBox="0 0 58 58">
<path fill-rule="evenodd"  fill="rgb(234, 172, 57)"
 d="M55.928,58.000 L2.071,58.000 C0.829,58.000 -0.000,57.172 -0.000,55.931 L-0.000,2.148 C-0.000,1.114 0.414,0.493 1.243,0.080 C2.071,-0.127 2.900,0.080 3.522,0.493 L57.171,54.070 C57.586,54.483 58.000,55.104 58.000,55.931 C58.000,57.172 57.171,58.000 55.928,58.000 ZM47.642,50.346 C47.435,50.346 47.435,50.553 47.435,50.553 L46.192,51.794 C45.777,52.208 45.156,52.415 44.742,52.415 C44.328,52.415 43.706,52.208 43.292,51.794 C42.464,50.967 42.464,49.725 43.292,48.898 L44.535,47.657 C44.535,47.450 44.742,47.450 44.742,47.450 L41.428,44.140 L40.806,44.761 C40.392,45.174 39.771,45.381 39.356,45.381 C38.942,45.381 38.321,45.174 37.907,44.761 C37.078,43.933 37.078,42.693 37.907,41.865 L38.528,41.244 L35.213,37.934 L34.592,38.555 C34.178,38.969 33.556,39.176 33.142,39.176 C32.728,39.176 32.106,38.969 31.692,38.555 C30.863,37.728 30.863,36.487 31.692,35.659 L32.313,35.038 L28.999,31.729 C28.792,31.729 28.792,31.936 28.792,31.936 L27.549,33.177 C27.135,33.590 26.513,33.798 26.099,33.798 C25.685,33.798 25.064,33.590 24.649,33.177 C23.821,32.350 23.821,31.108 24.649,30.281 L25.892,29.039 C25.892,28.833 26.099,28.833 26.099,28.833 L22.785,25.523 L22.164,26.144 C21.749,26.558 21.335,26.764 20.714,26.764 C20.299,26.764 19.678,26.558 19.264,26.144 C18.435,25.317 18.435,24.075 19.264,23.248 L19.885,22.627 L16.571,19.317 L15.950,19.938 C15.536,20.352 15.121,20.558 14.499,20.558 C14.085,20.558 13.464,20.352 13.050,19.938 C12.221,19.111 12.221,17.869 13.050,17.042 L13.671,16.421 L10.357,13.112 C10.150,13.112 10.150,13.318 10.150,13.318 L8.907,14.560 C8.492,14.973 7.871,15.180 7.457,15.180 C7.043,15.180 6.421,14.973 6.007,14.560 C5.179,13.732 5.179,12.491 6.007,11.663 L7.250,10.629 C7.250,10.422 7.457,10.422 7.457,10.422 L4.143,7.113 L4.143,53.655 L50.956,53.655 L47.642,50.346 ZM12.221,23.455 L34.178,45.382 C34.800,46.002 35.007,46.829 34.593,47.657 C34.386,48.485 33.557,48.899 32.728,48.899 L10.979,48.899 C9.736,48.899 8.907,48.071 8.907,46.829 L8.907,25.730 C8.493,24.903 8.700,24.075 9.322,23.455 C10.150,22.627 11.393,22.627 12.221,23.455 ZM13.050,44.761 L27.757,44.761 L13.050,30.074 L13.050,44.761 Z"/>
</svg>
