<svg
 xmlns="http://www.w3.org/2000/svg"
 xmlns:xlink="http://www.w3.org/1999/xlink"
 width="66px" height="66px" viewBox="0 0 66 66">
<path fill-rule="evenodd"  fill="rgb(234, 172, 57)"
 d="M65.057,8.721 L63.643,10.136 L49.264,24.514 C49.264,24.750 49.264,24.750 49.264,24.986 L49.264,60.343 C49.264,63.172 47.379,66.000 44.314,66.000 L5.421,66.000 C2.593,66.000 -0.000,63.171 -0.000,60.343 L-0.000,21.450 C-0.000,18.621 2.357,16.500 5.421,16.500 L41.957,16.500 L56.100,1.886 L57.279,0.707 C57.986,0.235 58.693,0.000 59.400,0.000 C60.579,0.000 61.757,0.472 62.464,1.414 L64.350,3.300 C65.293,4.243 66.000,5.422 66.000,6.600 C66.000,7.543 65.529,8.250 65.057,8.721 ZM12.493,30.643 L32.765,30.643 L32.765,30.407 L33.472,25.457 C33.472,24.985 33.707,24.514 34.179,24.043 L37.007,21.214 L5.421,21.214 C5.186,21.214 4.714,21.450 4.714,21.450 L4.714,60.343 C4.714,60.814 5.186,61.285 5.421,61.285 L44.314,61.285 C44.314,61.050 44.550,60.814 44.550,60.343 L45.022,60.343 L45.022,28.757 L42.193,31.586 C41.721,32.057 41.250,32.292 40.779,32.292 L39.365,32.528 C39.365,32.764 39.365,32.764 39.365,33.000 C39.365,34.414 38.422,35.357 37.007,35.357 L12.493,35.357 C11.078,35.357 10.136,34.414 10.136,33.000 C10.136,31.586 11.078,30.643 12.493,30.643 ZM54.450,10.607 L45.021,20.036 C44.786,20.271 44.550,20.507 44.314,20.743 L38.186,26.872 L37.950,28.050 L39.129,27.814 L55.157,11.786 L54.450,10.607 ZM59.872,5.186 L59.636,5.421 L57.750,7.307 L58.693,8.250 L60.579,6.364 L59.872,5.186 ZM12.493,40.779 L36.772,40.779 C38.186,40.779 39.364,41.722 39.365,43.136 C39.365,44.550 38.422,45.493 37.007,45.493 L12.493,45.493 C11.078,45.493 10.136,44.550 10.136,43.136 C10.136,41.722 11.078,40.779 12.493,40.779 ZM12.493,50.914 L36.772,50.914 C38.186,50.914 39.364,51.857 39.365,53.271 C39.365,54.686 38.422,55.628 37.007,55.628 L12.493,55.628 C11.078,55.628 10.136,54.686 10.136,53.271 C10.136,51.857 11.078,50.914 12.493,50.914 Z"/>
</svg>
