<svg
 xmlns="http://www.w3.org/2000/svg"
 xmlns:xlink="http://www.w3.org/1999/xlink"
 width="62px" height="62px" viewBox="0 0 62 62">
<path fill-rule="evenodd"  fill="rgb(234, 172, 57)"
 d="M60.062,45.998 L60.062,56.030 C60.062,59.266 57.528,62.000 54.527,62.000 L5.646,62.000 C2.534,62.000 0.000,59.462 0.000,56.342 L0.000,46.500 L0.000,19.375 L0.000,11.457 C0.000,8.345 2.534,5.813 5.646,5.813 L21.313,5.813 C21.396,5.813 21.476,5.828 21.556,5.838 L46.182,0.049 C47.206,-0.189 48.253,0.442 48.507,1.476 L49.567,5.811 L49.910,5.811 C52.872,5.811 56.187,8.226 56.187,11.457 L56.187,13.855 C58.425,14.589 60.062,16.730 60.063,19.283 L60.063,29.565 C61.213,30.214 62.000,31.434 62.000,32.847 L62.000,42.716 C62.000,44.129 61.213,45.348 60.062,45.998 ZM3.875,56.342 C3.875,57.309 4.687,58.125 5.646,58.125 L54.527,58.125 C55.366,58.125 56.187,57.088 56.187,56.030 L56.187,46.500 L54.250,46.500 L54.250,53.262 C54.250,54.819 52.836,56.188 51.224,56.188 L5.812,56.188 C5.597,56.188 5.392,56.144 5.199,56.079 C4.742,56.035 4.297,55.950 3.875,55.808 L3.875,56.342 ZM3.875,46.500 L3.875,50.335 C3.879,50.388 3.890,50.438 3.890,50.491 C3.890,51.460 4.677,52.247 5.646,52.247 C5.811,52.247 5.969,52.273 6.122,52.312 L50.375,52.312 L50.375,46.500 L40.597,46.500 C38.510,46.500 36.813,44.803 36.813,42.716 L36.813,32.847 C36.813,30.760 38.510,29.063 40.597,29.063 L50.375,29.063 L50.375,23.251 L5.812,23.251 C5.584,23.251 5.368,23.204 5.165,23.131 C4.720,23.086 4.287,23.002 3.875,22.864 L3.875,46.500 ZM45.198,4.261 L5.495,13.595 C5.599,13.578 5.704,13.563 5.812,13.563 L47.473,13.563 L45.198,4.261 ZM52.313,11.457 C52.313,10.799 51.452,10.051 50.540,9.789 L51.463,13.563 L52.313,13.563 L52.313,11.457 ZM56.187,19.281 C56.187,18.263 55.441,17.438 54.527,17.438 L6.185,17.438 C6.013,17.488 5.834,17.523 5.646,17.523 C5.023,17.523 4.435,17.398 3.875,17.210 L3.875,17.391 C3.880,17.443 3.890,17.493 3.890,17.547 C3.890,18.515 4.677,19.302 5.646,19.302 C5.820,19.302 5.986,19.332 6.146,19.375 L51.320,19.375 C52.936,19.375 54.250,20.627 54.250,22.164 L54.250,29.063 L56.187,29.063 L56.187,19.281 ZM58.125,32.938 C57.933,32.938 57.751,32.902 57.576,32.850 L52.781,32.874 C52.631,32.912 52.475,32.938 52.313,32.938 C52.156,32.938 52.005,32.914 51.859,32.879 L40.597,32.938 L40.687,42.716 L51.995,42.657 C52.098,42.640 52.204,42.625 52.313,42.625 C52.411,42.625 52.505,42.640 52.599,42.654 L58.125,42.625 L58.125,32.938 ZM45.555,40.746 C43.912,40.746 42.577,39.411 42.577,37.768 C42.577,36.127 43.912,34.792 45.555,34.792 C47.196,34.792 48.529,36.127 48.529,37.768 C48.529,39.411 47.196,40.746 45.555,40.746 ZM45.555,36.871 C45.059,36.871 44.654,37.274 44.654,37.768 C44.654,38.264 45.059,38.667 45.555,38.667 C46.049,38.667 46.451,38.264 46.451,37.768 C46.451,37.274 46.049,36.871 45.555,36.871 Z"/>
</svg>
