<?xml version="1.0" encoding="utf-8"?>
<!-- Generator: Adobe Illustrator 18.0.0, SVG Export Plug-In . SVG Version: 6.00 Build 0)  -->
<!DOCTYPE svg PUBLIC "-//W3C//DTD SVG 1.1//EN" "http://www.w3.org/Graphics/SVG/1.1/DTD/svg11.dtd">
<svg version="1.1" id="Layer_1" xmlns="http://www.w3.org/2000/svg" xmlns:xlink="http://www.w3.org/1999/xlink" x="0px" y="0px"
	 viewBox="0 0 19 19" style="enable-background:new 0 0 19 19;" xml:space="preserve">
<style type="text/css">
	.st0{fill:#EAAC39;}
</style>
<path id="_copy" class="st0" d="M0,9.5C0,14.7,4.2,19,9.5,19S19,14.8,19,9.5C19,4.3,14.8,0,9.5,0C7,0,4.6,1,2.8,2.8
	C1,4.5,0,6.9,0,9.5z M17.3,9.5c0,4.4-3.5,7.9-7.9,7.9c-4.4,0-7.9-3.5-7.9-7.9c0-4.4,3.5-7.9,7.9-7.9c2.1,0,4.1,0.8,5.6,2.3
	C16.5,5.3,17.4,7.4,17.3,9.5L17.3,9.5z M8.7,9.5v0.8h5.5V8.7h-3.9V3.2H8.7V9.5z"/>
</svg>
