<svg
 xmlns="http://www.w3.org/2000/svg"
 xmlns:xlink="http://www.w3.org/1999/xlink"
 width="64px" height="64px" viewBox="0 0 64 64">
<path fill-rule="evenodd"  fill="rgb(234, 172, 57)"
 d="M32.000,64.000 C14.356,64.000 0.000,49.644 0.000,32.000 C0.000,14.356 14.356,0.000 32.000,0.000 C49.644,0.000 64.000,14.356 64.000,32.000 C64.000,49.644 49.644,64.000 32.000,64.000 ZM32.000,4.000 C16.560,4.000 4.000,16.560 4.000,32.000 C4.000,47.440 16.560,60.000 32.000,60.000 C47.440,60.000 60.000,47.440 60.000,32.000 C60.000,16.560 47.440,4.000 32.000,4.000 ZM17.616,49.322 C17.224,49.712 16.712,49.908 16.202,49.908 C15.690,49.908 15.178,49.712 14.788,49.322 C14.006,48.540 14.006,47.276 14.788,46.494 L46.616,14.664 C47.398,13.882 48.662,13.882 49.444,14.664 C50.226,15.446 50.226,16.710 49.444,17.492 L17.616,49.322 ZM22.108,29.930 C17.742,29.930 14.190,26.378 14.190,22.010 C14.190,17.642 17.742,14.090 22.108,14.090 C26.476,14.090 30.028,17.642 30.028,22.010 C30.028,26.378 26.474,29.930 22.108,29.930 ZM22.108,18.090 C19.948,18.090 18.190,19.848 18.190,22.010 C18.190,24.172 19.948,25.930 22.108,25.930 C24.270,25.930 26.028,24.172 26.028,22.010 C26.028,19.848 24.270,18.090 22.108,18.090 ZM42.104,34.086 C46.470,34.086 50.022,37.638 50.022,42.004 C50.022,46.372 46.468,49.924 42.104,49.924 C37.738,49.924 34.188,46.372 34.188,42.004 C34.188,37.638 37.738,34.086 42.104,34.086 ZM42.104,45.924 C44.264,45.924 46.022,44.166 46.022,42.004 C46.022,39.844 44.264,38.086 42.104,38.086 C39.944,38.086 38.188,39.844 38.188,42.004 C38.188,44.166 39.944,45.924 42.104,45.924 Z"/>
</svg>
