<svg
 xmlns="http://www.w3.org/2000/svg"
 xmlns:xlink="http://www.w3.org/1999/xlink"
 width="64px" height="64px" viewBox="0 0 64 64">
<path fill-rule="evenodd"  fill="rgb(234, 172, 57)"
 d="M54.916,40.258 L32.000,40.258 C29.109,40.258 26.632,42.735 26.632,45.626 C26.632,48.103 28.284,50.374 30.761,50.994 C30.968,50.994 30.968,50.994 31.174,50.994 C31.381,50.994 31.793,50.994 32.000,50.994 C35.509,50.994 38.400,53.884 38.400,57.393 C38.400,60.284 36.542,62.555 33.858,63.587 C33.239,63.793 32.619,64.000 32.000,64.000 C14.452,64.000 0.000,49.548 0.000,32.000 C0.000,14.452 14.452,0.000 32.000,0.000 C49.548,0.000 64.000,14.452 64.000,32.000 C64.000,36.955 60.284,40.258 54.916,40.258 ZM32.000,4.129 C16.723,4.129 4.129,16.723 4.129,32.000 C4.129,47.277 16.723,59.871 32.000,59.871 C32.206,59.871 32.413,59.871 32.619,59.871 C33.652,59.458 34.271,58.632 34.271,57.600 C34.271,56.361 33.239,55.329 32.000,55.329 C31.381,55.329 30.761,55.329 30.142,55.123 L29.936,55.123 C25.600,54.090 22.503,50.374 22.503,45.832 C22.503,40.671 26.839,36.336 32.000,36.336 L54.916,36.336 C56.774,36.336 59.871,35.716 59.871,32.206 C59.871,16.723 47.277,4.129 32.000,4.129 ZM49.135,32.000 C45.213,32.000 42.116,28.903 42.116,24.981 C42.116,21.058 45.213,17.961 49.135,17.961 C53.058,17.961 56.155,21.058 56.155,24.981 C56.155,28.903 52.851,32.000 49.135,32.000 ZM49.135,22.090 C47.484,22.090 46.245,23.329 46.245,24.981 C46.245,26.632 47.484,27.871 49.135,27.871 C50.787,27.871 52.026,26.632 52.026,24.981 C52.026,23.329 50.581,22.090 49.135,22.090 ZM35.303,21.884 C31.381,21.884 28.284,18.787 28.284,14.865 C28.284,10.942 31.381,7.845 35.303,7.845 C39.226,7.845 42.323,10.942 42.323,14.865 C42.323,18.787 39.020,21.884 35.303,21.884 ZM35.303,12.181 C33.652,12.181 32.413,13.420 32.413,15.071 C32.413,16.723 33.652,17.961 35.303,17.961 C36.955,17.961 38.193,16.723 38.193,15.071 C38.193,13.420 36.749,12.181 35.303,12.181 ZM19.200,28.077 C15.277,28.077 12.181,24.981 12.181,21.058 C12.181,17.136 15.277,14.039 19.200,14.039 C23.122,14.039 26.219,17.136 26.219,21.058 C26.219,24.981 22.916,28.077 19.200,28.077 ZM19.200,18.168 C17.548,18.168 16.310,19.407 16.310,21.058 C16.310,22.710 17.548,23.948 19.200,23.948 C20.852,23.948 22.090,22.710 22.090,21.058 C22.090,19.407 20.645,18.168 19.200,18.168 ZM22.297,36.955 C22.297,40.877 18.994,43.974 15.277,43.974 C11.355,43.974 8.258,40.877 8.258,36.955 C8.258,33.032 11.355,29.935 15.277,29.935 C19.200,29.935 22.297,33.032 22.297,36.955 ZM12.387,36.955 C12.387,38.606 13.626,39.845 15.277,39.845 C16.929,39.845 18.168,38.606 18.168,36.955 C18.168,35.303 16.723,34.065 15.277,34.065 C13.626,34.065 12.387,35.303 12.387,36.955 Z"/>
</svg>
