<!-- Generator: Adobe Illustrator 21.1.0, SVG Export Plug-In  -->
<svg version="1.1"
	 xmlns="http://www.w3.org/2000/svg" xmlns:xlink="http://www.w3.org/1999/xlink" xmlns:a="http://ns.adobe.com/AdobeSVGViewerExtensions/3.0/"
	 x="0px" y="0px" width="78px" height="55px" viewBox="0 0 78 55" style="enable-background:new 0 0 78 55;" xml:space="preserve">
<style type="text/css">
	.st0{fill:#EAAC39;}
</style>
<defs>
</defs>
<path id="Ellipse_1634_copy_1_" class="st0" d="M76,48H60c-0.2,0-0.4,0-0.6-0.1C58.9,48,58.5,48,58,48H30c0-0.1,0-0.1,0-0.2
	c-0.2,4.1-3.7,7.3-7.8,7.2c-3.8-0.2-6.9-3.2-7.2-7h-5C4.5,48,0,43.5,0,38V10C0,4.5,4.5,0,10,0h48c5.5,0,10,4.5,10,10v28
	c0,2.2-0.7,4.3-2,6h10c1.1,0,2,0.9,2,2S77.1,48,76,48z M44,44h11V16c0-0.6-0.4-1-1-1h-9c-0.6,0-1,0.4-1,1V44z M22.5,51
	c1.9,0,3.5-1.6,3.5-3.5S24.4,44,22.5,44S19,45.6,19,47.5S20.6,51,22.5,51z M64,10c0-3.3-2.7-6-6-6H10c-3.3,0-6,2.7-6,6v28
	c0,3.3,2.7,6,6,6h5.9c1.9-3.7,6.5-5.1,10.1-3.1c1.3,0.7,2.4,1.8,3.1,3.1H40V14c0-1.7,1.3-3,3-3h13c1.7,0,3,1.3,3,3v29.9
	c2.9-0.5,5-3,5-5.9V10z M29,29H14c-1.7,0-3-1.3-3-3V14c0-1.7,1.3-3,3-3h15c1.7,0,3,1.3,3,3v12C32,27.7,30.7,29,29,29z M28,16
	c0-0.6-0.4-1-1-1H16c-0.6,0-1,0.4-1,1v8c0,0.6,0.4,1,1,1h11c0.6,0,1-0.4,1-1V16z M51,27c1.1,0,2,0.9,2,2s-0.9,2-2,2s-2-0.9-2-2
	S49.9,27,51,27z"/>
</svg>
