<!-- Generator: Adobe Illustrator 21.1.0, SVG Export Plug-In  -->
<svg version="1.1"
	 xmlns="http://www.w3.org/2000/svg" xmlns:xlink="http://www.w3.org/1999/xlink" xmlns:a="http://ns.adobe.com/AdobeSVGViewerExtensions/3.0/"
	 x="0px" y="0px" width="58px" height="51px" viewBox="0 0 58 51" style="enable-background:new 0 0 58 51;" xml:space="preserve">
<style type="text/css">
	.st0{fill:#EAAC39;}
</style>
<defs>
</defs>
<path id="Ellipse_1638_copy_3_1_" class="st0" d="M55,51H3c-1.7,0-3-1.3-3-3V3c0-1.7,1.3-3,3-3h52c1.7,0,3,1.3,3,3v45
	C58,49.7,56.7,51,55,51z M18,4H5C4.4,4,4,4.4,4,5v41c0,0.6,0.4,1,1,1h13V4z M36,4H22v43h14V4z M54,5c0-0.6-0.4-1-1-1H40v43h13
	c0.6,0,1-0.4,1-1V5z M47,44c-3.3,0-6-2.7-6-6s2.7-6,6-6s6,2.7,6,6S50.3,44,47,44z M47,36c-1.1,0-2,0.9-2,2s0.9,2,2,2s2-0.9,2-2
	S48.1,36,47,36z M51,21h-8c-1.1,0-2-0.9-2-2s0.9-2,2-2h8c1.1,0,2,0.9,2,2S52.1,21,51,21z M51,15h-8c-1.1,0-2-0.9-2-2s0.9-2,2-2h8
	c1.1,0,2,0.9,2,2S52.1,15,51,15z M25,11h8c1.1,0,2,0.9,2,2s-0.9,2-2,2h-8c-1.1,0-2-0.9-2-2S23.9,11,25,11z M25,17h8c1.1,0,2,0.9,2,2
	s-0.9,2-2,2h-8c-1.1,0-2-0.9-2-2S23.9,17,25,17z M29,32c3.3,0,6,2.7,6,6s-2.7,6-6,6s-6-2.7-6-6S25.7,32,29,32z M29,40
	c1.1,0,2-0.9,2-2s-0.9-2-2-2s-2,0.9-2,2S27.9,40,29,40z M11,32c3.3,0,6,2.7,6,6s-2.7,6-6,6s-6-2.7-6-6S7.7,32,11,32z M11,40
	c1.1,0,2-0.9,2-2s-0.9-2-2-2s-2,0.9-2,2S9.9,40,11,40z M15,21H7c-1.1,0-2-0.9-2-2s0.9-2,2-2h8c1.1,0,2,0.9,2,2S16.1,21,15,21z
	 M15,15H7c-1.1,0-2-0.9-2-2s0.9-2,2-2h8c1.1,0,2,0.9,2,2S16.1,15,15,15z"/>
</svg>
