<svg
 xmlns="http://www.w3.org/2000/svg"
 xmlns:xlink="http://www.w3.org/1999/xlink"
 width="59px" height="51px" viewBox="0 0 59 51">
<path fill-rule="evenodd"  fill="rgb(234, 172, 57)"
 d="M56.965,51.000 L2.034,51.000 C0.814,51.000 -0.000,50.205 -0.000,49.012 L-0.000,1.988 C-0.000,0.795 0.814,-0.000 2.034,-0.000 L56.965,-0.000 C57.983,-0.000 59.000,0.795 59.000,1.988 L59.000,49.012 C59.000,50.205 58.186,51.000 56.965,51.000 ZM17.700,3.977 L4.069,3.977 L4.069,47.421 L17.497,47.421 L17.497,20.330 C17.089,20.728 16.683,20.927 16.072,20.927 L7.324,20.927 C6.103,20.927 5.289,20.131 5.289,18.939 C5.289,17.745 6.104,16.950 7.324,16.950 L16.072,16.950 C16.683,16.950 17.089,17.149 17.497,17.547 L17.497,14.962 C17.089,15.359 16.683,15.558 16.072,15.558 L7.324,15.558 C6.103,15.558 5.289,14.763 5.289,13.570 C5.289,12.378 6.104,11.582 7.324,11.582 L16.276,11.582 C16.886,11.582 17.293,11.781 17.700,12.178 L17.700,3.977 ZM37.028,3.977 L21.769,3.977 L21.769,47.024 L37.028,47.024 L37.028,3.977 ZM54.931,3.977 L41.097,3.977 L41.097,11.780 C41.300,11.383 41.910,11.184 42.521,11.184 L51.269,11.184 C52.490,11.184 53.304,11.979 53.304,13.173 C53.304,14.365 52.490,15.161 51.269,15.161 L42.521,15.161 C41.910,15.161 41.504,14.962 41.097,14.564 L41.097,17.149 C41.300,16.751 41.910,16.552 42.521,16.552 L51.269,16.552 C52.490,16.552 53.304,17.348 53.304,18.541 C53.304,19.734 52.490,20.529 51.269,20.529 L42.521,20.529 C41.910,20.529 41.504,20.330 41.097,19.933 L41.097,47.024 L54.931,47.024 L54.931,3.977 ZM46.997,32.260 C50.048,32.260 52.490,34.646 52.490,37.629 C52.490,40.611 50.048,42.997 46.997,42.997 C43.945,42.997 41.504,40.611 41.504,37.629 C41.504,34.646 43.945,32.260 46.997,32.260 ZM46.997,39.021 C47.810,39.021 48.421,38.424 48.421,37.629 C48.421,36.833 47.810,36.237 46.997,36.237 C46.183,36.237 45.572,36.833 45.572,37.629 C45.572,38.424 46.183,39.021 46.997,39.021 ZM25.024,11.383 L33.772,11.383 C34.993,11.383 35.807,12.178 35.807,13.372 C35.807,14.564 34.993,15.359 33.772,15.359 L25.024,15.359 C23.804,15.359 22.990,14.564 22.990,13.372 C22.990,12.178 23.804,11.383 25.024,11.383 ZM25.024,16.552 L33.772,16.552 C34.790,16.552 35.807,17.348 35.807,18.541 C35.807,19.734 34.993,20.529 33.772,20.529 L25.024,20.529 C23.804,20.529 22.990,19.734 22.990,18.541 C22.990,17.348 23.804,16.552 25.024,16.552 ZM29.296,32.260 C32.348,32.260 34.790,34.646 34.790,37.629 C34.790,40.611 32.348,42.997 29.296,42.997 C26.245,42.997 23.804,40.611 23.804,37.629 C23.804,34.646 26.245,32.260 29.296,32.260 ZM29.296,39.021 C30.110,39.021 30.721,38.424 30.721,37.629 C30.721,36.834 30.110,36.237 29.296,36.237 C28.483,36.237 27.872,36.833 27.872,37.629 C27.872,38.424 28.483,39.021 29.296,39.021 ZM11.597,32.260 C14.648,32.260 17.089,34.646 17.089,37.629 C17.089,40.611 14.648,42.997 11.597,42.997 C8.545,42.997 6.103,40.611 6.103,37.629 C6.103,34.646 8.544,32.260 11.597,32.260 ZM11.597,39.021 C12.410,39.021 13.021,38.424 13.021,37.629 C13.021,36.833 12.410,36.237 11.597,36.237 C10.783,36.237 10.172,36.833 10.172,37.629 C10.172,38.424 10.783,39.021 11.597,39.021 Z"/>
</svg>
