<svg
 xmlns="http://www.w3.org/2000/svg"
 xmlns:xlink="http://www.w3.org/1999/xlink"
 width="84px" height="61px" viewBox="0 0 84 61">
<path fill-rule="evenodd"  stroke="rgb(234, 172, 57)" stroke-width="4px" stroke-linecap="butt" stroke-linejoin="miter" fill="none"
 d="M12.000,2.000 L60.000,2.000 C65.523,2.000 70.000,6.477 70.000,12.000 L70.000,40.000 C70.000,45.523 65.523,50.000 60.000,50.000 L12.000,50.000 C6.477,50.000 2.000,45.523 2.000,40.000 L2.000,12.000 C2.000,6.477 6.477,2.000 12.000,2.000 Z"/>
<path fill-rule="evenodd"  stroke="rgb(234, 172, 57)" stroke-width="4px" stroke-linecap="butt" stroke-linejoin="miter" fill="none"
 d="M14.999,13.000 L32.000,13.000 C33.105,13.000 34.000,13.895 34.000,15.000 L34.000,29.000 C34.000,30.105 33.105,31.000 32.000,31.000 L14.999,31.000 C13.895,31.000 13.000,30.105 13.000,29.000 L13.000,15.000 C13.000,13.895 13.895,13.000 14.999,13.000 Z"/>
<path fill-rule="evenodd"  stroke="rgb(234, 172, 57)" stroke-width="4px" stroke-linecap="butt" stroke-linejoin="miter" fill="none"
 d="M44.000,13.000 L59.000,13.000 C60.104,13.000 61.000,13.895 61.000,15.000 L61.000,48.000 C61.000,49.105 60.104,50.000 59.000,50.000 L44.000,50.000 C42.895,50.000 42.000,49.105 42.000,48.000 L42.000,15.000 C42.000,13.895 42.895,13.000 44.000,13.000 Z"/>
<path fill-rule="evenodd"  stroke="rgb(234, 172, 57)" stroke-width="4px" stroke-linecap="butt" stroke-linejoin="miter" fill="none"
 d="M53.000,29.000 C54.105,29.000 55.000,29.895 55.000,31.000 C55.000,32.105 54.105,33.000 53.000,33.000 C51.895,33.000 51.000,32.105 51.000,31.000 C51.000,29.895 51.895,29.000 53.000,29.000 Z"/>
<path fill-rule="evenodd"  stroke="rgb(234, 172, 57)" stroke-width="4px" stroke-linecap="butt" stroke-linejoin="miter" fill="rgb(242, 230, 208)"
 d="M24.500,42.000 C28.642,42.000 32.000,45.358 32.000,49.500 C32.000,53.642 28.642,57.000 24.500,57.000 C20.358,57.000 17.000,53.642 17.000,49.500 C17.000,45.358 20.358,42.000 24.500,42.000 Z"/>
<path fill-rule="evenodd"  stroke="rgb(234, 172, 57)" stroke-width="4px" stroke-linecap="butt" stroke-linejoin="miter" fill="none"
 d="M59.000,46.000 L78.000,46.000 C79.105,46.000 80.000,46.895 80.000,48.000 C80.000,49.105 79.105,50.000 78.000,50.000 L59.000,50.000 C57.895,50.000 57.000,49.105 57.000,48.000 C57.000,46.895 57.895,46.000 59.000,46.000 Z"/>
</svg>
