<svg
 xmlns="http://www.w3.org/2000/svg"
 xmlns:xlink="http://www.w3.org/1999/xlink"
 width="64px" height="64px" viewBox="0 0 64 64">
<path fill-rule="evenodd"  fill="rgb(234, 172, 57)"
 d="M33.007,63.801 C32.595,64.000 32.397,64.000 32.000,64.000 C31.588,64.000 31.390,64.000 30.993,63.801 C12.004,53.994 0.000,33.403 0.000,10.006 C0.000,9.212 0.412,8.602 1.007,8.206 C10.402,2.807 21.201,0.000 32.000,0.000 C42.799,0.000 53.597,2.807 62.993,8.206 C63.588,8.602 63.999,9.198 64.000,10.006 C63.802,33.403 51.996,54.010 33.007,63.801 ZM32.000,3.996 C22.207,3.996 12.614,6.391 4.011,11.195 C4.606,32.198 15.207,50.593 32.000,59.790 C48.793,50.791 59.393,32.198 59.988,11.195 C51.401,6.391 41.792,3.996 32.000,3.996 ZM33.617,51.813 C32.808,52.209 32.412,52.209 32.015,52.209 C31.252,52.209 30.658,51.890 30.322,51.356 C25.899,48.412 21.033,44.675 17.418,38.406 C13.819,32.000 11.607,24.801 11.012,17.205 C11.012,16.412 11.424,15.603 12.217,15.207 C18.028,12.492 24.450,11.043 30.932,10.875 C31.222,10.692 31.588,10.600 32.000,10.600 C32.412,10.600 32.762,10.692 33.068,10.890 C39.718,10.997 46.368,12.446 52.408,15.222 C53.216,15.619 53.613,16.427 53.613,17.220 C53.003,24.831 50.806,32.229 47.207,38.421 C43.409,45.011 38.223,49.007 33.617,51.813 ZM30.002,14.795 C24.831,15.023 19.706,16.153 15.008,18.196 C15.604,24.801 17.601,30.993 20.805,36.393 C23.474,40.892 26.692,44.004 30.002,46.414 L30.002,14.795 ZM48.991,18.196 C44.293,16.168 39.168,15.023 33.998,14.795 L33.998,46.429 C37.353,44.004 40.694,40.892 43.195,36.393 C46.398,30.993 48.396,24.801 48.991,18.196 Z"/>
</svg>
