<?xml version="1.0" encoding="UTF-8"?><!DOCTYPE svg PUBLIC "-//W3C//DTD SVG 1.1//EN" "http://www.w3.org/Graphics/SVG/1.1/DTD/svg11.dtd"><svg xmlns="http://www.w3.org/2000/svg"><symbol id="ico-close" viewBox="0 0 30 30">
    <path fill-rule="evenodd" d="M29.849 28.435l-1.414 1.414L15 16.414 1.565 29.849.151 28.435 13.586 15 .151 1.565 1.565.151 15 13.586 28.435.151l1.414 1.414L16.414 15l13.435 13.435z"/>
</symbol><symbol id="ico-credit-1" viewBox="0 0 70.9 53.4">
    <style>
        .st0{fill:#eaac39}
    </style>
    <path class="st0" d="M24.4 24.4c-1.2 0-2.2 1-2.2 2.2-.1.8-3.4 2.6-8.9 2.6-5.4 0-8.7-1.9-8.9-2.6 0-1.2-1-2.2-2.2-2.2S0 25.4 0 26.6c0 4.6 6.7 7.1 13.3 7.1s13.3-2.4 13.3-7.1c0-1.2-.9-2.2-2.2-2.2z"/>
    <path class="st0" d="M24.4 17.9c-1.2 0-2.2 1-2.2 2.2-.1.8-3.4 2.6-8.9 2.6s-8.7-1.9-8.9-2.6c0-1.2-1-2.2-2.2-2.2S0 18.9 0 20.1c0 4.6 6.7 7.1 13.3 7.1s13.3-2.4 13.3-7.1c0-1.2-.9-2.2-2.2-2.2z"/>
    <path class="st0" d="M24.4 31c-1.2 0-2.2 1-2.2 2.2-.1.6-3 2.6-8.9 2.6s-8.7-2-8.9-2.6c0-1.2-1-2.2-2.2-2.2S0 32 0 33.2c0 4.6 6.7 7.1 13.3 7.1s13.3-2.4 13.3-7.1c0-1.2-.9-2.2-2.2-2.2z"/>
    <path class="st0" d="M24.4 37.5c-1.2 0-2.2 1-2.2 2.2-.1.6-3 2.6-8.9 2.6s-8.7-2-8.9-2.6c0-1.2-1-2.2-2.2-2.2S0 38.5 0 39.7c0 4.6 6.7 7.1 13.3 7.1s13.3-2.4 13.3-7.1c0-1.2-.9-2.2-2.2-2.2z"/>
    <path class="st0" d="M24.4 44.1c-1.2 0-2.2 1-2.2 2.2-.1.6-3 2.6-8.9 2.6s-8.7-2-8.9-2.6c0-1.2-1-2.2-2.2-2.2S0 45.1 0 46.3c0 4.6 6.7 7.1 13.3 7.1s13.3-2.4 13.3-7.1c0-1.2-.9-2.2-2.2-2.2z"/>
    <path class="st0" d="M46.6 24.4c-1.2 0-2.2 1-2.2 2.2-.1.8-3.4 2.6-8.8 2.6s-8.7-1.9-8.9-2.6c0-1.2-1-2.2-2.2-2.2s-2.2 1-2.2 2.2c0 4.6 6.7 7.1 13.3 7.1s13.3-2.4 13.3-7.1c-.1-1.2-1.1-2.2-2.3-2.2z"/>
    <path class="st0" d="M46.6 31c-1.2 0-2.2 1-2.2 2.2-.1.6-3 2.6-8.8 2.6-5.9 0-8.7-2-8.9-2.6 0-1.2-1-2.2-2.2-2.2s-2.2 1-2.2 2.2c0 4.6 6.7 7.1 13.3 7.1s13.3-2.4 13.3-7.1c-.1-1.2-1.1-2.2-2.3-2.2z"/>
    <path class="st0" d="M46.6 37.5c-1.2 0-2.2 1-2.2 2.2-.1.8-3.4 2.6-8.8 2.6-5.9 0-8.7-2-8.9-2.6 0-1.2-1-2.2-2.2-2.2s-2.2 1-2.2 2.2c0 4.6 6.7 7.1 13.3 7.1s13.3-2.4 13.3-7.1c-.1-1.2-1.1-2.2-2.3-2.2z"/>
    <path class="st0" d="M46.6 44.1c-1.2 0-2.2 1-2.2 2.2-.1.8-3.4 2.6-8.8 2.6-5.9 0-8.7-2-8.9-2.6 0-1.2-1-2.2-2.2-2.2s-2.2 1-2.2 2.2c0 4.6 6.7 7.1 13.3 7.1s13.3-2.4 13.3-7.1c-.1-1.2-1.1-2.2-2.3-2.2z"/>
    <path class="st0" d="M35.5 13c-6.6 0-13.3 2.4-13.3 7.1 0 4.6 6.7 7.1 13.3 7.1s13.3-2.4 13.3-7.1c0-4.6-6.7-7.1-13.3-7.1zm0 9.7c-5.9 0-8.7-2-8.9-2.6.1-.8 3.4-2.6 8.9-2.6s8.7 1.9 8.8 2.6c-.1.6-2.9 2.6-8.8 2.6z"/>
    <path class="st0" d="M68.7 31c-1.2 0-2.2 1-2.2 2.2-.1.6-3 2.6-8.9 2.6s-8.7-2-8.9-2.6c0-1.2-1-2.2-2.2-2.2s-2.2 1-2.2 2.2c0 4.6 6.7 7.1 13.3 7.1 6.6 0 13.3-2.4 13.3-7.1 0-1.2-1-2.2-2.2-2.2z"/>
    <path class="st0" d="M68.7 37.5c-1.2 0-2.2 1-2.2 2.2-.1.6-3 2.6-8.9 2.6s-8.7-2-8.9-2.6c0-1.2-1-2.2-2.2-2.2s-2.2 1-2.2 2.2c0 4.6 6.7 7.1 13.3 7.1 6.6 0 13.3-2.4 13.3-7.1 0-1.2-1-2.2-2.2-2.2z"/>
    <path class="st0" d="M68.7 44.1c-1.2 0-2.2 1-2.2 2.2-.1.6-3 2.6-8.9 2.6s-8.7-2-8.9-2.6c0-1.2-1-2.2-2.2-2.2s-2.2 1-2.2 2.2c0 4.6 6.7 7.1 13.3 7.1 6.6 0 13.3-2.4 13.3-7.1 0-1.2-1-2.2-2.2-2.2z"/>
    <path class="st0" d="M57.6 26.1c-6.6 0-13.3 2.4-13.3 7.1s6.7 7.1 13.3 7.1c6.6 0 13.3-2.4 13.3-7.1s-6.7-7.1-13.3-7.1zm0 9.7c-5.9 0-8.7-2-8.9-2.6.1-.8 3.4-2.6 8.9-2.6s8.7 1.9 8.9 2.6c-.1.6-3 2.6-8.9 2.6z"/>
    <path class="st0" d="M24.4 11.4c-1.2 0-2.2 1-2.2 2.2-.1.8-3.4 2.6-8.9 2.6s-8.7-1.9-8.9-2.6c0-1.2-1-2.2-2.2-2.2S0 12.4 0 13.6c0 4.6 6.7 7.1 13.3 7.1s13.3-2.4 13.3-7.1c0-1.2-.9-2.2-2.2-2.2z"/>
    <path class="st0" d="M13.4 0C6.8 0 .1 2.4.1 7.1s6.7 7.1 13.3 7.1 13.3-2.4 13.3-7.1C26.6 2.5 20 0 13.4 0zm0 9.7c-5.5 0-8.7-1.9-8.9-2.6.1-.6 3-2.6 8.9-2.6s8.7 2 8.9 2.6c-.2.8-3.5 2.6-8.9 2.6z"/>
</symbol><symbol id="ico-credit-2" viewBox="0 0 58 66">
    <path fill-rule="evenodd" d="M55.565 18.857c-.664 0-1.107-.219-1.55-.658l-1.328-1.315-1.719 1.702C55.344 23.621 58 30.158 58 37.276 58 53.063 44.939 66 29 66S0 53.063 0 37.276c0-7.118 2.656-13.655 7.032-18.69l-1.719-1.702-1.328 1.315c-.443.439-.886.658-1.55.658s-1.107-.219-1.549-.658c-.886-.877-.886-2.193 0-3.07l5.976-5.92c.886-.877 2.215-.877 3.1 0 .885.878.885 2.193 0 3.07l-1.55 1.535 1.719 1.702A29.085 29.085 0 0 1 23.222 9.13a6.278 6.278 0 0 1-.642-2.771C22.58 2.85 25.458 0 29 0s6.42 2.85 6.42 6.359c0 .992-.231 1.933-.642 2.771a29.071 29.071 0 0 1 13.09 6.386l1.72-1.702-1.55-1.535c-.885-.877-.885-2.193 0-3.07.886-.877 2.214-.877 3.099 0l3.097 3.068.003.002.002.002 2.875 2.848c.886.877.886 2.193 0 3.07-.442.439-.885.658-1.549.658zM29 4.605a1.974 1.974 0 0 0-1.992 1.974c0 .849.533 1.565 1.288 1.846.217-.061.452-.093.704-.093.252 0 .488.033.705.093a1.966 1.966 0 0 0 1.287-1.846A1.974 1.974 0 0 0 29 4.605zm2.214 8.213v3.847c0 1.315-.886 2.193-2.214 2.193-1.329 0-2.214-.878-2.214-2.193v-3.847C14.963 13.879 5.474 23.344 4.51 35.083h3.902c1.329 0 2.214.877 2.214 2.193s-1.107 2.192-2.214 2.192H4.549c1.162 11.536 10.562 20.779 22.237 21.826v-3.626c0-1.316.885-2.193 2.214-2.193 1.328 0 2.214.877 2.214 2.193v3.626c11.675-1.047 21.074-10.29 22.237-21.825h-3.863c-1.328 0-2.214-.877-2.214-2.193s.886-2.193 2.214-2.193h3.902c-.964-11.739-10.453-21.204-22.276-22.265zm12.175 26.65h-8.45A6.425 6.425 0 0 1 29 43.415c-3.542 0-6.42-2.85-6.42-6.358 0-2.738 1.752-5.076 4.206-5.97v-8.282c0-1.317.885-2.194 2.214-2.194 1.328 0 2.213.878 2.213 2.194v8.282a6.41 6.41 0 0 1 3.889 3.996h8.287c1.329 0 2.214.877 2.214 2.192 0 1.317-.885 2.193-2.214 2.193zm-12.525-2.89A1.984 1.984 0 0 0 29 35.302a1.975 1.975 0 0 0-1.993 1.974c0 1.096.886 1.974 1.993 1.974.858 0 1.58-.529 1.864-1.276a2.555 2.555 0 0 1-.093-.698c0-.249.032-.483.093-.698z"/>
</symbol><symbol id="ico-credit-3" viewBox="0 0 71 51">
    <path fill-rule="evenodd" d="M65.186 51H5.761C2.585 51 0 46.402 0 43.209V41.14a2.02 2.02 0 0 1 1.963-2.009V5.513C1.963 2.473 4.47 0 7.55 0h55.847c1.475 0 2.876.567 3.946 1.596 1.091 1.05 1.692 2.441 1.692 3.917v33.618A2.02 2.02 0 0 1 71 41.14v2.069C71 46.402 68.392 51 65.186 51zm-.215-45.487c0-.79-.736-1.482-1.574-1.482H7.55c-.825 0-1.522.678-1.522 1.482v33.611h58.943V5.513zm1.964 37.696v-.054H4.064v.054c0 .97.762 3.76 1.697 3.76h59.425c.948 0 1.75-2.806 1.75-3.76h-.001zM35.5 4.898c.535 0 1.059.215 1.437.59.378.376.595.895.595 1.425 0 .531-.217 1.051-.595 1.426a2.06 2.06 0 0 1-1.437.59 2.055 2.055 0 0 1-1.436-.59 2.018 2.018 0 0 1-.596-1.426A2.02 2.02 0 0 1 35.5 4.898z"/>
</symbol><symbol id="ico-credit-4" viewBox="0 0 51 64">
    <style>
        .st0{fill:#eaac39}
    </style>
    <path id="&#x43F;&#x430;&#x441;&#x43F;&#x43E;&#x440;&#x442;_1_" class="st0" d="M47 64H4c-2.2 0-4-1.8-4-4V4c0-2.2 1.8-4 4-4h43c2.2 0 4 1.8 4 4v56c0 2.2-1.8 4-4 4zm0-59c0-.6-.4-1-1-1H5c-.6 0-1 .4-1 1v54c0 .6.4 1 1 1h41c.6 0 1-.4 1-1V5zm-8.9 46h-1v-3.5H36v-.8h3.2v.8h-1.1V51zm-4.4-1.5h-.6V51h-1v-4.3h1.6c.4 0 .9.1 1.2.4.6.5.6 1.4.1 2l-.1.1c-.3.2-.7.3-1.2.3zm.5-1.9c-.1-.1-.3-.2-.5-.2h-.6v1.3h.6c.3 0 .6-.2.7-.5v-.1c0-.2-.1-.3-.2-.5zM29.3 51c-1 0-1.8-.7-1.8-1.7v-.9c0-1 .7-1.8 1.6-1.8h.2c1 0 1.8.7 1.8 1.7v.9c0 .5-.2 1-.5 1.3s-.8.5-1.3.5zm.8-2.6c0-.3-.1-.5-.2-.8-.3-.3-.8-.4-1.1-.1l-.1.1c-.1.2-.2.5-.2.8v.8c0 .3.1.5.2.8.3.3.8.4 1.1.1l.1-.1c.1-.2.2-.5.2-.8v-.8zm-4.5-.9H24V51h-1v-4.3h3.5V51h-1l.1-3.5zm-4.5.6c0-.2 0-.4-.2-.6-.2-.1-.4-.2-.6-.2-.2 0-.4.1-.5.3-.1.2-.2.5-.2.7v.9c0 .3.1.5.2.7.1.2.3.3.6.3.2 0 .4 0 .5-.2s.2-.4.1-.6h1c0 .4-.1.8-.4 1.1-.3.4-.7.5-1.1.5-.9.1-1.7-.6-1.7-1.5v-1.1c0-.5.1-.9.5-1.3.3-.3.8-.5 1.2-.5s.9.1 1.2.4.5.7.4 1.1h-1zm-4.2 2h-1.3l-.2.9h-1.1l1.4-4.3h1.1l1.4 4.3h-1l-.3-.9zm-.7-2.1l-.4 1.3h.8l-.4-1.3zm-3.6-.5H11V51h-1v-4.3h3.6V51h-1v-3.5z"/>
    <path class="st0" d="M30.6 15.6s1.1-.4.8-1.1c-.1-.2-.6-1.4-.3-1.6.1-.1 1-.6 1.1-.5.5.1.7.8.9.9.2.1 1.3.1 1.1.9-.1.3-.8.8-.4.9.4-.1 1.2-.3.5.7 0-.1-.2-.3-.3-.3-.2 0-.8 0-.9-.2 0 .1.8 1.1-.3 1.2.4-.5-.4-.8-.3-1.5.1-.6.6-.7.3-1.4-.2 0-.9-.3-1-.4-.2.2 0 .7 0 .9.1.3.3.5.1.8-.1.6-1.3.7-1.3.7z"/>
    <path class="st0" d="M20.3 15.6s-1.1-.4-.8-1.1c.1-.2.6-1.4.3-1.6-.1-.1-1-.6-1.1-.5-.5.1-.7.8-.9.9-.2.1-1.3.1-1.1.9.1.3.8.8.4.9-.4-.1-1.2-.3-.5.7 0-.1.2-.3.3-.3.2 0 .8 0 .9-.2 0 .1-.8 1.1.3 1.2-.4-.5.4-.8.3-1.5-.1-.6-.6-.7-.3-1.4.2 0 .9-.3 1-.4.2.2 0 .7 0 .9-.1.3-.3.5-.1.8.2.6 1.3.7 1.3.7z"/>
    <path class="st0" d="M37.8 19.8c.1-.4-.7-.2-1.1-.2.4-.2 1-.8.9-1.4 0-.4-.8-.2-1.2 0 0 0 1.4-1.4.6-2.3-.2-.3-1.4 1.3-1.6 1.3 0-.1.5-.7.7-1.1.8-1.7 0-2.5-.3-2.3-.6.3.3.5-2.1 3.4 0 0-.2.1-.3.1 0 0-.3.4-.4.6-.1.3-.6.8-.6.7-.4-.1-.4.1-1 .7-.6.5-1.3 1.2-1.2 1.8.1.5 1.3 1.1.4 1.8-.6.5-1.6 0-1.5-.3 0-.1.9-.3.4-1.2-.3.3-1.1.3-1.3-.1.4 0 .7-.1.7-.6-.7.2-1.1-.3-1.2-.8-.1-.4.3-1.1.5-1.4.1-.2.4-.5.4-.5s.2.2.7-.1c.1 0 1.2 0 1.1.7.7-.4-.2-.8-.3-.9.7.1 1.2 1.3 2 0 0 0-.3.3-.7.1-.3-.1-1-.5-1.4-.5.1-.1.4-.5 1.4.1.8-1.3-.7-1.5-.7-1.5 0-.3-.3-.3-.3-.3s0-.2-.2-.3c1-1.8-.7-1.7-.7-1.7.1-.1.1-.2 0-.3l-.1-.3.2.1v-.5s-.2.2-.2.1l.2-.3H29l.2.2-.2-.1v.5l.2-.1-.1.3c-.2.2 0 .3 0 .4-1.6.4-.6 1.6-.6 1.9-.6-.3-1.3-.8-1.7-1.1v-.5c1.7-2.3-.8-2.5-.8-2.5 0 .3-.2.2-.2 0 .1 0 .3-.5-.1-.6h.2l-.2-.3.3.1V10l-.3.2.1-.3h-.6c0 .1.1.2.1.3-.1-.1-.2-.1-.3-.2v.6c.1 0 .2-.1.3-.1-.1.1-.1.2-.2.3h.2c-.3.1-.3.5-.1.7-.1 0 0 .2-.1.1-.3-.2-.6-.1-.8 0-.3.1-.6.4-.6.8-.1.6.1 1 .5 1.4.1.1.1.3.1.4 0 .4-.5.6-.9.8l-.6.3h-.1s-.1.1-.2.1c.1-.4.4-.9.2-1.3-.2-.3-.6-.4-.9-.4.1-.1.1-.2 0-.3 0-.1-.1-.2-.2-.3.1 0 .2.1.2.1v-.5c-.1 0-.2.1-.2.1l.2-.2h-.6c.1.1.1.2.2.3-.1 0-.1-.1-.2-.1v.5c.1 0 .1-.1.2-.1-.1.2-.2.4-.1.6-.4 0-.8.1-1 .5-.1.4.1.9.3 1.2-.1.1-.2.2-.2.3h-.1c-.1.1-.1.2-.2.2-.4.1-.8.3-.9.7-.1.3 0 .6.3.8.4-.3 1-.4 1.4-.1h-.2c-.3 0-.6.2-.8.3s-.3.2-.5.2-.4 0-.6-.1c.2.3.6.6 1 .5s.6-.5 1-.5c-.1.2-.3.2-.4.4-.1.2.1.4.2.5-.1-.4.3-.5.6-.6.1-.1.2-.1.3-.1.3 0 .6.3.8.1.4.5.9 1.1.9 1.8 0 .6-.6 1.1-1.2.9 0 .4.4.6.7.6-.3.4-1 .4-1.3.1-.1.1-.1.2-.1.4 0 .4.4.6.6.9-.2.4-.7.4-1.1.3-.4-.1-.7-.4-.7-.8s.3-.6.5-1c.1-.3.1-.7-.1-.9-.5-.7-1.1-1.1-1.7-1.7-.1-.1-.3-.1-.4-.1-.1 0-.1 0-.2-.1-.3-.4-.5-1-1-1.2-.1-.1-1.9-3-1.9-3.1-.1-.3-.3-.4-.5-.2-.7.9-.1 2 0 2.1.2.4.8 1.1.8 1.2-.1 0-.6-.4-.7-.6-.1-.1-.7-.9-1-.8-.4.8.1 1.7.6 2.3-.3-.2-1.2-.6-1.1.1.1.5.5 1 .9 1.2-.2 0-1.3-.2-1.2.3.2.5.7.8 1.2 1.1-.2-.1-.5 0-.7 0s-.4.2-.4.4c.1.6.9.5 1.3.9 0 .1-.2.1-.3.1-.3 0-.6.2-.8.4.1.5.9.6 1.2.7-.1 0-.2.2-.2.2h-.2c-.1.1-.3.3-.2.9l-.4-.1s-.3.8.6 1.1c.1 0 .5.4.5.2.2 0-.1.3.3.3 0 .2 0 .3.2.3.1 0 1.5 3.5 1.5 3.6-.1.4.2.4.2.4-.2.5.3.7.2.8-.2.4.1.3.2.4l.1.5c-.7.6-.1.8-.1.9-.1.5.4.5.4.5-.1.4.7.3.7.5-.2.4.2.5.2.5 0 .2.3.2.3.3.3.2.4 0 .4-.2.1-.1.1-.3-.1-.3.3-.3-.1-.5-.1-.5.1-.1 0-.3 0-.3.3 0 .6-.5.9-.6 1-.5 1.4-.4 2.2-.4.1 0 .8.1.8-.2s-.4-.6-.4-.7c.4.1.8-.1.8-.4 0 0-.6 0-.7-.2-.3-.4.1-.8.6-1 .7-.2 1.3.4 1.2 1 0 .3-.3.4-.6.6 0 .1-.1.1-.2.2s-.1.2-.2.3c.2-.1.5-.1.8-.1-.9.2-1.6 1-2.4 1.3-.1 0-.2.1-.3 0s-.1-.2-.1-.4c0 0-.5-.2-.6.5 0 .3 0 .4.2.7v.1c-.3.1-.4.4-.4.8.1.3.3.4.4.7v.3c.3 0 .4-.3.5-.5v-.1.1c.1.3.3.6.6.7.3.1.8 0 1-.1 0 .3.4.4.6.6.4.2.8.1 1.1-.1 0 .4.4.5.6.7.3-.2.7-.3.6-.7.1 0 .5.4 1.2 0 .2-.1.5-.4.5-.5 0 0 .5.3 1 .1.4-.2.5-.4.6-.8 0 .6.5.6.4.6-.1-.5.4-.5.4-.9.1-.8-.5-.8-.4-.9.6-.9-.3-1.2-.3-1.1-.1.8-.6.4-.9.2-.5-.4-1.5-.9-2-1.1.3 0 .5-.1.8.1-.1-.7-.9-.5-.9-1.1 0-.5.3-1 .9-1.1.5-.1 1 .2.9.8 0 .5-.7.3-.8.3-.1.2.2.6.9.5 0 .3-.3.6-.2.8.6.4 1.1-.1 2.3.4.4.2.8 0 1.2.3s.7.6 1.1.6c.1 0 .2-.2.5-.2.3-.1.5.1.6-.1.1-.2-.1 0 .7-.4.1 0-.1-.2.1-.3.5-.2.6-.8.6-.8.5-.4.1-.6.1-.8-.1-.3-.1-.4-.3-.7-.3-.5-1.2-.6-1.2-1l.3.2v-.7l-.1.1.2-.4h-.6l.1.4-.3-.2v.7c.1 0 .3-.2.3-.2-.1.4-.6.4-1 .8-.3.3-.5.8-.5.8-.2.2-.2.4 0 .6 0 0 .1.3.3.5 0 0-.1.3-.8.3-.4 0-2.3-.5-2-1 0-.1.4.3.3 0 .3.3.3.2.5.2v-.7c.3 0 .5.4 1 0 0 0-.6-.3-.4-1.1.1-.3.1-1.2-1-1.4-1-.1-1.1-.5-1.1-.5.4-.1-.3-1.3.3-2 0 .2.6.2.6.4l.2-.1c0 .3 0 1.1.1 1.3 0 .1.5.4.5.4.1-.1.6-.3.6-.4 0-.4-.2-.9-.1-1.3.2.4.4 1.3.5 1.6s.6.2.7.3c.2-.1.3-.3.4-.4.2-.7-.7-1.6-.6-1.9.3.3.9 1.9 1.2 1.8h.6c0 .1.1-.3.2-.6 0-.3-1.1-1.7-1.1-1.7.3.1 1 1.5 1.6 1.7.1 0 .6 0 .7-.1 0 0 .1-.4 0-.6-.1-.3-.5-.6-.8-.8.4.2 1 .9 1.7.4.2-.5-.3-1-.7-1.2 0 0 1 .2 1.4-.3 0-.2-.5-.6-.6-.7 0-.1 1-.2 1.1-.7 0-.3-1.1-.5-1-.5.2-.2 1.1-.5 1.2-.8.2-.6-.7-.5-1.1-.6.3-.2 1-.8 1.1-1.2zm-16.6 8.4c-.3.1-.6.1-.9.3-.3.2-.5.5-.5.8s.1.7 0 1c-.1.2-.2.4-.4.5.3.3.6 0 .9 0 .1.2 0 .5 0 .7 0-.1.1 0 0 0 .2 0 .4-.1.5-.2v.1c.1-.1.3-.1.4 0v.2c-.3.4-.8.5-1.2.7-.4.1-.9-.1-1.1-.6-.4-.6-.5 0-.5-.2 0 0-.2-.1-.3 0l-.2-.2c.2-.3-.1-.3-.1-.4 0 0 .1-.3-.4-.7-.1-.1.2-.2-.1-.4 0 0-1.9-3.4-1.8-3.4.2-.2 0-.3 0-.3v-.2c.4 0 1-.7.9-.6-.2.2-.5.5-.6.8-.1.1 0 .6 0 .7.1.1.7.2.7.2.4-.4 1.3-1.5 1.3-1.6.1 0-.7.9-1 1.5-.1.3.1.8.2.8s.5 0 .7-.1c.4-.4.9-1.5 1.1-1.6 0 0-.8 1.3-.7 1.7.1.2.3.6.5.6.3 0 .6-.1.7-.4.1-.5.2-1.1.4-1.5 0 .2-.1.8-.1 1.1s.3.3.5.5c.1.1.6-.2.7-.4.1-.4 0-.8 0-1.2.1 0 .1.1.2.1.4-.2.5-.1.6-.4.3.3.3.8.2 1.2 0 .2-.1.7.2.7-.1.1-.5.2-.8.2zm5.6-12.5c-.1.2.5.4.7.5-.2 0-.6-.1-.6.1s.3.1.3.3c0 .4-1.2.3-1.1.6 0 .2.4.1.4.1-.3.5-.5.7-.8 1.6v.1c0 .2-.1.7-.2.8 0-.1 0-.1-.1-.2 0 .1 0 .1-.1.2-.1-.2-.1-.6-.2-.8v-.1c-.3-.8-.5-1-.8-1.6 0-.1.4.1.4-.1.1-.3-1-.3-1.1-.6 0-.1.3-.1.3-.3s-.4-.1-.6-.1c.2-.1.8-.3.7-.5-.1-.1-.6 0-.8 0 1.7-.7 1.5-.9 1.6-.9h1c.2 0 0 .2 1.6.9 0 0-.5-.1-.6 0z"/>
    <path class="st0" d="M22.4 18.1c0 .1.1.1.1.2 0-.1 0-.2-.1-.2z"/>
    <path class="st0" d="M22.7 15.5c0-.1 0-.1 0 0 0-.1 0-.1 0 0 0-.1.1-.1 0 0 0-.1 0-.1 0 0-.1 0-.2 0-.2.1.1-.1.1-.1.2-.1z"/>
    <path class="st0" d="M14.6 18.2z"/>
    <path class="st0" d="M20.8 17.4h.2-.2z"/>
    <path class="st0" d="M21.5 35.2c0 .1 0 .1 0 0 0 .1 0 .1 0 0z"/>
</symbol><symbol id="ico-credit-5" viewBox="0 0 69 51">
    <style>
        .st0{fill:#eaac39}
    </style>
    <path id="Rounded_Rectangle_11_1_" class="st0" d="M54 30h-9v3h18v4H45v11c0 1.1-.9 2-2 2s-2-.9-2-2V37h-5v-4h5v-3h-5v-4h5V0h13c8.3 0 15 6.7 15 15s-6.7 15-15 15zm0-26h-9v22h9c6.1 0 11-4.9 11-11S60.1 4 54 4zM15 51C6.7 51 0 44.3 0 36V15C0 6.7 6.7 0 15 0s15 6.7 15 15v21c0 8.3-6.7 15-15 15zm11-36c0-6.1-4.9-11-11-11S4 8.9 4 15v21c0 6.1 4.9 11 11 11s11-4.9 11-11V15z"/>
</symbol><symbol id="ico-credit-6" viewBox="0 0 71.1 68.2">
    <style>
        .st0{fill:#eaac39}
    </style>
    <path id="Rectangle_1641_copy_1_" class="st0" d="M67.6 27.4c1.6 1.8 3.5 3.9 3.5 6.7 0 2.8-1.9 4.9-3.5 6.7-.9.9-1.6 1.9-2.2 3-.2 1.3-.2 2.6 0 3.9.2 2.4.5 5.1-1.1 7.3s-4.3 2.8-6.6 3.3c-2.7 0-5 1.7-5.9 4.2-1.2 2.1-2.6 4.5-5.2 5.4-.6.2-1.2.3-1.8.3-1.9-.1-3.7-.7-5.4-1.5-2.3-1.6-5.3-1.6-7.6 0-1.7.9-3.5 1.4-5.4 1.5-.6 0-1.2-.1-1.8-.3-2.6-.8-4-3.2-5.2-5.4-.8-2.5-3.2-4.2-5.9-4.2-2.4-.5-5.1-1.1-6.7-3.3-1.6-2.1-1.3-4.9-1.1-7.3.2-1.3.2-2.6 0-3.9-.6-1.1-1.3-2.1-2.2-3C1.9 39 0 36.9 0 34.1c0-2.8 1.9-4.9 3.5-6.7.9-.9 1.6-1.9 2.2-3 .2-1.3.2-2.6 0-3.9-.2-2.4-.5-5.1 1.1-7.3s4.3-2.8 6.7-3.3c1.3-.2 2.5-.6 3.6-1.2.9-.9 1.7-1.9 2.2-3 1.2-2.1 2.6-4.5 5.2-5.4.6-.2 1.2-.3 1.8-.3 1.9.1 3.7.7 5.4 1.5 2.3 1.6 5.3 1.6 7.6 0C41 .6 42.8.1 44.7 0c.6 0 1.2.1 1.8.3 2.6.8 4 3.2 5.2 5.4.8 2.5 3.2 4.2 5.9 4.2 2.4.5 5.1 1.1 6.6 3.3s1.3 4.9 1.1 7.3c-.2 1.3-.2 2.6 0 3.9.7 1.1 1.4 2.1 2.3 3zm-3.3 3c-1.3-1.3-2.4-2.9-3.1-4.6-.5-1.9-.5-3.8-.2-5.7.2-1.7.3-3.5-.2-4.3-.6-.8-2.3-1.2-4-1.6-1.9-.3-3.7-.9-5.3-1.9-1.4-1.2-2.6-2.7-3.4-4.4-.9-1.5-1.8-3.1-2.8-3.4-.8-.3-2.5.4-4.1 1.1-3.4 2.1-7.7 2.1-11.1 0-1.6-.7-3.2-1.4-4.1-1.1-1 .3-1.9 1.9-2.8 3.4-.8 1.7-2 3.2-3.4 4.4-1.6 1-3.4 1.7-5.3 1.9-1.7.4-3.4.8-4 1.6s-.4 2.6-.2 4.3c.3 1.9.2 3.8-.2 5.7-.7 1.7-1.8 3.3-3.1 4.6-1.2 1.3-2.4 2.7-2.4 3.7s1.2 2.4 2.4 3.7c1.3 1.3 2.4 2.9 3.1 4.6.5 1.9.5 3.8.2 5.7-.2 1.7-.3 3.5.2 4.3.6.8 2.3 1.2 4 1.6 1.9.3 3.7.9 5.3 1.9 1.4 1.2 2.6 2.7 3.4 4.4.9 1.5 1.8 3.1 2.8 3.4.8.3 2.5-.4 4.1-1.1 3.4-2.1 7.7-2.1 11.1 0 1.6.7 3.2 1.4 4.1 1.1 1-.3 1.9-1.9 2.8-3.4.8-1.7 2-3.2 3.4-4.4 1.6-1 3.4-1.7 5.3-1.9 1.7-.4 3.4-.8 4-1.6.6-.8.4-2.5.2-4.3-.3-1.9-.2-3.8.2-5.7.7-1.7 1.7-3.3 3.1-4.6 1.2-1.3 2.4-2.7 2.4-3.7s-1.2-2.4-2.4-3.7zM33.8 41.8L31 44.6l-2.8-2.8-5.4-5.4c-.4-.4-.4-1 0-1.4l1.4-1.4c.4-.4 1-.4 1.4 0L31 39l14.6-14.6c.4-.4 1-.4 1.4 0l1.4 1.4c.4.4.4 1 0 1.4L33.8 41.8z"/>
</symbol><symbol id="ico-email" viewBox="0 0 49 35">
    <title>
        email@2x
    </title>
    <g fill-rule="evenodd">
        <path d="M44.49 0c2.338 0 4.13 1.781 4.13 3.813v1.272l-5.402 3.813-19.067 13.029L5.402 8.897v26.059h-1.27C1.791 34.956 0 33.175 0 31.143V3.813C0 1.783 1.793.001 4.131 0l20.02 14.936L44.49 0z" fill-rule="nonzero"/>
        <path d="M48.62 5.085v26.058c-.092 2.737-1.316 3.765-5.402 3.813V8.898l5.403-3.813z" fill-rule="nonzero"/>
        <path d="M3.813 0h40.765v5.461H3.813z"/>
        <path d="M4.767 29.554h38.451v5.402H4.767z"/>
    </g>
</symbol><symbol id="ico-location" viewBox="0 0 15 22">
    <style>
        .st0{fill:#eaac39}
    </style>
    <path class="st0" d="M2.3 2.2C3.7.7 5.4 0 7.5 0s3.8.7 5.2 2.2 2.2 3.2 2.2 5.2c0 1-.4 2.3-1.1 3.9-.5 1.3-1.3 2.8-2.3 4.4-.5.9-1 1.7-1.6 2.6-.6.9-1 1.6-1.3 2l-.4.7-.7 1-.7-1c-1.1-1.6-2.2-3.4-3.3-5.3-1-1.6-1.7-3.1-2.3-4.4C.5 9.7.1 8.4.1 7.4c0-2.1.7-3.8 2.2-5.2zm9.3 1.1c-1.1-1.1-2.5-1.7-4.1-1.7-1.6 0-3 .6-4.1 1.7-1.1 1.1-1.7 2.5-1.7 4.1 0 .7.3 1.8.9 3.3.5 1.1 1.3 2.5 2.3 4.2.9 1.5 1.7 2.8 2.6 4.1.9-1.3 1.7-2.6 2.6-4.1 1-1.7 1.7-3.1 2.3-4.2.6-1.5.9-2.6.9-3.3 0-1.6-.6-3-1.7-4.1z"/>
    <circle class="st0" cx="7.5" cy="7.1" r="1.8"/>
</symbol><symbol id="ico-mail" viewBox="0 0 21.9 15.2">
    <path d="M0 .8v14.3h21.9V0H0v.8zm18.3.9L11 6.6 3.6 1.7h14.7zm-7.8 6.6l.5.3.5-.3 8.8-5.9v11.1H1.7V2.4l8.8 5.9z"/>
</symbol><symbol id="ico-phone-call" viewBox="0 0 21 22">
    <path fill-rule="evenodd" d="M3.439.408l-.05.051v.05L.874 3.078v.051C.034 3.868-.2 4.774.169 5.849c1.207 3.392 3.153 6.448 5.837 9.168 2.482 2.451 5.535 4.4 9.158 5.843 1.039.335 1.979.134 2.818-.605h.05l2.465-2.518c.335-.335.504-.756.504-1.259 0-.504-.169-.924-.504-1.26l-3.22-3.224-.05-.101c-.336-.302-.755-.453-1.258-.453-.504 0-.924.151-1.258.453l-.05.051-1.56 1.562a11.697 11.697 0 0 1-3.271-2.217c-.939-.907-1.694-2.015-2.264-3.324l1.61-1.612c.335-.336.503-.747.503-1.235a1.46 1.46 0 0 0-.553-1.183l.05-.051-.05-.05L5.905.509l-.05-.05-.05-.051A1.98 1.98 0 0 0 4.622.006c-.42 0-.813.134-1.183.402zm1.359 1.31l3.22 3.275.051.05h.05c.033.068 0 .134-.101.201L6.006 7.259l-.353.353.152.503.302.655c.201.471.535 1.067 1.006 1.789a9.225 9.225 0 0 0 1.61 1.888l.151.152c1.241 1.142 2.599 2.015 4.076 2.619l.503.252.402-.352 2.013-2.016c.067-.1.134-.1.201 0l3.321 3.275c.067.068.067.151 0 .252l-2.465 2.417c-.37.337-.789.421-1.258.253-3.389-1.343-6.223-3.157-8.504-5.441-2.55-2.552-4.377-5.406-5.485-8.563-.134-.436-.033-.789.302-1.058v-.05l2.466-2.469c.067-.067.126-.101.176-.101.05 0 .109.034.176.101z"/>
</symbol><symbol id="ico-phone" viewBox="0 0 23 23">
    <style>
        .st0{fill:#eaac39}
    </style>
    <path id="Forma_1" class="st0" d="M19 13.7c-.8-.8-2.1-.8-2.9 0L14.7 15c-.6.6-1.6.6-2.2 0l-4.7-4.7c-.6-.6-.6-1.7 0-2.3l1.3-1.4c.8-.8.8-2.2 0-3L6.2.6c-.8-.8-2.1-.8-3 0l-1 1c-3 3-3.1 7.8-.2 10.9l.1.1 8.1 8.2c3 3 7.7 3 10.7 0l.1-.1 1-1c.7-.7 1.5-1.9.7-2.7M4.2 1.6c.3-.3.7-.3 1 0l3 3c.3.3.3.7 0 1l-.5.5-3.9-4 .4-.5zm7 18.2l-8.1-8.2C.9 9.3.8 5.6 2.8 3.2l3.9 4c-1 1.2-1 3 .1 4.1l4.7 4.7c1.1 1.1 2.9 1.2 4.1.1l3.9 4c-2.4 2.1-6 1.9-8.3-.3zm9.8-1.1l-.5.5-3.9-4 .5-.5c.3-.3.7-.3 1 0l3 3c.2.2.2.7-.1 1z"/>
</symbol><symbol id="ico-pin-1" viewBox="0 0 120 260">
    <path d="M60.5 145L48 114.9l24 .1-11.5 30z"/>
    <path d="M60 126.7l12-11.8-11.5 30-.5-18.2z"/>
    <path d="M60 102.9l12 12-12 12-12-12 12-12z"/>
</symbol><symbol id="ico-play-icon" viewBox="0 0 69 79">
    <path fill-rule="evenodd" stroke-width="6" d="M63.002 37.995l-59.995 35V2.997l59.995 34.998z"/>
</symbol><symbol id="ico-step-1" viewBox="0 0 57 63">
    <path fill-rule="evenodd" d="M50.543 63H6.902C3.785 63 0 60.329 0 56.99V12.467c0-3.34 3.785-6.011 6.902-6.011h7.125c1.114-2.226 4.008-3.785 6.457-3.785h5.567v-.445C26.051.89 26.941 0 28.277 0c1.336 0 2.227.89 2.227 2.226v.668h5.566c2.672 0 5.344 1.558 6.457 3.784h7.125c3.117 0 7.348 2.227 7.348 5.789V56.99c0 3.116-3.117 6.01-6.457 6.01zm-11.8-54.318c0-.445-1.337-1.558-2.45-1.558H20.707c-1.336 0-2.672 1.113-2.672 1.781v1.335h20.708V8.682zm6.011 2.449h-1.558v1.558c0 1.336-.892 2.226-2.227 2.226H15.808c-1.335 0-2.226-.89-2.226-2.226v-1.558h-1.336v39.848h32.508V11.131zm7.57 46.081V12.689c0-.445-1.558-1.558-2.672-1.558h-.445v42.074c0 1.336-.891 2.227-2.227 2.227H10.019c-1.336 0-2.226-.891-2.226-2.227V11.131h-.891c-1.113 0-2.449 1.113-2.449 1.558v44.523c0 .445 1.336 1.558 2.449 1.558h43.641c.891 0 2.004-.89 2.004-1.558h-.223zM19.371 26.491l.446.445 4.23-4.229c.891-.891 2.226-.891 3.117 0 .891.89.891 2.226 0 3.116l-5.789 5.788c-.445.445-.891.668-1.558.668-.668 0-1.114-.222-1.559-.668l-2.004-2.003c-.891-.891-.891-2.226 0-3.117.89-.89 2.227-.89 3.117 0zm.223 13.357l.445.446 4.23-4.23c.669-.891 2.227-.891 3.118-.001.89.891.89 2.226 0 3.117l-5.789 5.788c-.446.445-.891.668-1.559.668-.667 0-1.113-.223-1.558-.668l-2.004-2.003c-.891-.89-.891-2.226 0-3.117.89-.89 2.226-.89 3.117 0zm10.91-12.021h9.574c1.336 0 2.226.89 2.226 2.226 0 1.336-.89 2.226-2.226 2.226h-9.574c-1.336 0-2.227-.89-2.227-2.226 0-1.336.891-2.226 2.227-2.226zm0 13.357h9.574c1.336 0 2.226.891 2.226 2.226 0 1.336-.89 2.226-2.226 2.226h-9.574c-1.336 0-2.227-.89-2.227-2.226 0-1.335.891-2.226 2.227-2.226z"/>
</symbol><symbol id="ico-step-2" viewBox="0 0 58 58">
    <path fill-rule="evenodd" d="M55.928 58H2.071C.829 58 0 57.172 0 55.931V2.148C0 1.114.414.493 1.243.08c.828-.207 1.657 0 2.279.413L57.171 54.07c.415.413.829 1.034.829 1.861C58 57.172 57.171 58 55.928 58zm-8.286-7.654c-.207 0-.207.207-.207.207l-1.243 1.241c-.415.414-1.036.621-1.45.621-.414 0-1.036-.207-1.45-.621-.828-.827-.828-2.069 0-2.896l1.243-1.241c0-.207.207-.207.207-.207l-3.314-3.31-.622.621c-.414.413-1.035.62-1.45.62-.414 0-1.035-.207-1.449-.62-.829-.828-.829-2.068 0-2.896l.621-.621-3.315-3.31-.621.621c-.414.414-1.036.621-1.45.621-.414 0-1.036-.207-1.45-.621-.829-.827-.829-2.068 0-2.896l.621-.621-3.314-3.309c-.207 0-.207.207-.207.207l-1.243 1.241c-.414.413-1.036.621-1.45.621-.414 0-1.035-.208-1.45-.621-.828-.827-.828-2.069 0-2.896l1.243-1.242c0-.206.207-.206.207-.206l-3.314-3.31-.621.621c-.415.414-.829.62-1.45.62-.415 0-1.036-.206-1.45-.62-.829-.827-.829-2.069 0-2.896l.621-.621-3.314-3.31-.621.621c-.414.414-.829.62-1.451.62-.414 0-1.035-.206-1.449-.62-.829-.827-.829-2.069 0-2.896l.621-.621-3.314-3.309c-.207 0-.207.206-.207.206L8.907 14.56c-.415.413-1.036.62-1.45.62-.414 0-1.036-.207-1.45-.62-.828-.828-.828-2.069 0-2.897l1.243-1.034c0-.207.207-.207.207-.207L4.143 7.113v46.542h46.813l-3.314-3.309zM12.221 23.455l21.957 21.927c.622.62.829 1.447.415 2.275-.207.828-1.036 1.242-1.865 1.242H10.979c-1.243 0-2.072-.828-2.072-2.07V25.73c-.414-.827-.207-1.655.415-2.275.828-.828 2.071-.828 2.899 0zm.829 21.306h14.707L13.05 30.074v14.687z"/>
</symbol><symbol id="ico-step-3" viewBox="0 0 66 66">
    <path fill-rule="evenodd" d="M65.057 8.721l-1.414 1.415-14.379 14.378v35.829c0 2.829-1.885 5.657-4.95 5.657H5.421C2.593 66 0 63.171 0 60.343V21.45c0-2.829 2.357-4.95 5.421-4.95h36.536L56.1 1.886 57.279.707C57.986.235 58.693 0 59.4 0c1.179 0 2.357.472 3.064 1.414L64.35 3.3c.943.943 1.65 2.122 1.65 3.3 0 .943-.471 1.65-.943 2.121zM12.493 30.643h20.272v-.236l.707-4.95c0-.472.235-.943.707-1.414l2.828-2.829H5.421c-.235 0-.707.236-.707.236v38.893c0 .471.472.942.707.942h38.893c0-.235.236-.471.236-.942h.472V28.757l-2.829 2.829c-.472.471-.943.706-1.414.706l-1.414.236V33c0 1.414-.943 2.357-2.358 2.357H12.493c-1.415 0-2.357-.943-2.357-2.357 0-1.414.942-2.357 2.357-2.357zM54.45 10.607l-9.429 9.429-.707.707-6.128 6.129-.236 1.178 1.179-.236 16.028-16.028-.707-1.179zm5.422-5.421l-.236.235-1.886 1.886.943.943 1.886-1.886-.707-1.178zM12.493 40.779h24.279c1.414 0 2.592.943 2.593 2.357 0 1.414-.943 2.357-2.358 2.357H12.493c-1.415 0-2.357-.943-2.357-2.357 0-1.414.942-2.357 2.357-2.357zm0 10.135h24.279c1.414 0 2.592.943 2.593 2.357 0 1.415-.943 2.357-2.358 2.357H12.493c-1.415 0-2.357-.942-2.357-2.357 0-1.414.942-2.357 2.357-2.357z"/>
</symbol><symbol id="ico-step-4" viewBox="0 0 59 60">
    <path fill-rule="evenodd" d="M57.831 59.664a1.993 1.993 0 0 1-2.646-.993l-2.034-4.48H37.044l1.283 2.824a1.997 1.997 0 1 1-3.637 1.656L9.324 2.828A2.003 2.003 0 0 1 9.463.917c.368-.572 1-.917 1.68-.917h.001l13.909.007a12.286 12.286 0 0 1 11.153 7.195l22.616 49.813a2.001 2.001 0 0 1-.991 2.649zM32.569 8.857a8.283 8.283 0 0 0-7.518-4.85l-10.804-.006 5.807 12.786h16.115l-3.6-7.93zm5.416 11.93H21.871l3.241 7.135h16.112l-3.239-7.135zm5.056 11.134H26.928l3.241 7.136H46.28l-3.239-7.136zm5.055 11.135h-16.11l3.241 7.135h16.109l-3.24-7.135zm-31.53-13.833L7.537 50.191h16.147l1.172-2.718 2.233 4.917-2.758 6.4a2 2 0 0 1-2.626 1.045 2.001 2.001 0 0 1-1.043-2.629l1.299-3.015H5.815l-1.98 4.599a1.997 1.997 0 1 1-3.669-1.583l14.166-32.901 2.234 4.917z"/>
</symbol><symbol id="ico-step-5" viewBox="0 0 62 62">
    <path fill-rule="evenodd" d="M60.062 45.998V56.03c0 3.236-2.534 5.97-5.535 5.97H5.646C2.534 62 0 59.462 0 56.342V11.457a5.652 5.652 0 0 1 5.646-5.644h15.667c.083 0 .163.015.243.025L46.182.049a1.947 1.947 0 0 1 2.325 1.427l1.06 4.335h.343c2.962 0 6.277 2.415 6.277 5.646v2.398c2.238.734 3.875 2.875 3.876 5.428v10.282c1.15.649 1.937 1.869 1.937 3.282v9.869c0 1.413-.787 2.632-1.938 3.282zM3.875 56.342c0 .967.812 1.783 1.771 1.783h48.881c.839 0 1.66-1.037 1.66-2.095V46.5H54.25v6.762c0 1.557-1.414 2.926-3.026 2.926H5.812c-.215 0-.42-.044-.613-.109a5.928 5.928 0 0 1-1.324-.271v.534zm0-9.842v3.835c.004.053.015.103.015.156 0 .969.787 1.756 1.756 1.756.165 0 .323.026.476.065h44.253V46.5h-9.778a3.788 3.788 0 0 1-3.784-3.784v-9.869a3.788 3.788 0 0 1 3.784-3.784h9.778v-5.812H5.812c-.228 0-.444-.047-.647-.12a5.935 5.935 0 0 1-1.29-.267V46.5zM45.198 4.261L5.495 13.595c.104-.017.209-.032.317-.032h41.661l-2.275-9.302zm7.115 7.196c0-.658-.861-1.406-1.773-1.668l.923 3.774h.85v-2.106zm3.874 7.824c0-1.018-.746-1.843-1.66-1.843H6.185c-.172.05-.351.085-.539.085a5.534 5.534 0 0 1-1.771-.313v.181c.005.052.015.102.015.156 0 .968.787 1.755 1.756 1.755.174 0 .34.03.5.073H51.32c1.616 0 2.93 1.252 2.93 2.789v6.899h1.937v-9.782zm1.938 13.657c-.192 0-.374-.036-.549-.088l-4.795.024a1.9 1.9 0 0 1-.468.064 1.94 1.94 0 0 1-.454-.059l-11.262.059.09 9.778 11.308-.059c.103-.017.209-.032.318-.032.098 0 .192.015.286.029l5.526-.029v-9.687zm-12.57 7.808a2.98 2.98 0 0 1-2.978-2.978 2.98 2.98 0 0 1 2.978-2.976 2.978 2.978 0 0 1 0 5.954zm0-3.875a.9.9 0 0 0-.901.897.898.898 0 1 0 .901-.897z"/>
</symbol><symbol id="ico-time" viewBox="0 0 19 19">
    <style>
        .st0{fill:#eaac39}
    </style>
    <path id="_copy" class="st0" d="M0 9.5C0 14.7 4.2 19 9.5 19S19 14.8 19 9.5C19 4.3 14.8 0 9.5 0 7 0 4.6 1 2.8 2.8 1 4.5 0 6.9 0 9.5zm17.3 0c0 4.4-3.5 7.9-7.9 7.9s-7.9-3.5-7.9-7.9S5 1.6 9.4 1.6c2.1 0 4.1.8 5.6 2.3 1.5 1.4 2.4 3.5 2.3 5.6zm-8.6 0v.8h5.5V8.7h-3.9V3.2H8.7v6.3z"/>
</symbol><symbol id="ico-why-1" viewBox="0 0 64 64">
    <path fill-rule="evenodd" d="M33.007 63.801C32.595 64 32.397 64 32 64c-.412 0-.61 0-1.007-.199C12.004 53.994 0 33.403 0 10.006c0-.794.412-1.404 1.007-1.8C10.402 2.807 21.201 0 32 0s21.597 2.807 30.993 8.206c.595.396 1.006.992 1.007 1.8-.198 23.397-12.004 44.004-30.993 53.795zM32 3.996c-9.793 0-19.386 2.395-27.989 7.199C4.606 32.198 15.207 50.593 32 59.79c16.793-8.999 27.393-27.592 27.988-48.595C51.401 6.391 41.792 3.996 32 3.996zm1.617 47.817c-.809.396-1.205.396-1.602.396-.763 0-1.357-.319-1.693-.853-4.423-2.944-9.289-6.681-12.904-12.95-3.599-6.406-5.811-13.605-6.406-21.201 0-.793.412-1.602 1.205-1.998 5.811-2.715 12.233-4.164 18.715-4.332.29-.183.656-.275 1.068-.275.412 0 .762.092 1.068.29 6.65.107 13.3 1.556 19.34 4.332.808.397 1.205 1.205 1.205 1.998-.61 7.611-2.807 15.009-6.406 21.201-3.798 6.59-8.984 10.586-13.59 13.392zm-3.615-37.018c-5.171.228-10.296 1.358-14.994 3.401.596 6.605 2.593 12.797 5.797 18.197 2.669 4.499 5.887 7.611 9.197 10.021V14.795zm18.989 3.401c-4.698-2.028-9.823-3.173-14.993-3.401v31.634c3.355-2.425 6.696-5.537 9.197-10.036 3.203-5.4 5.201-11.592 5.796-18.197z"/>
</symbol><symbol id="ico-why-2" viewBox="0 0 64 64">
    <path fill-rule="evenodd" d="M32 64C14.356 64 0 49.644 0 32S14.356 0 32 0s32 14.356 32 32-14.356 32-32 32zm0-60C16.56 4 4 16.56 4 32s12.56 28 28 28 28-12.56 28-28S47.44 4 32 4zM17.616 49.322a2.001 2.001 0 0 1-2.828 0 1.998 1.998 0 0 1 0-2.828l31.828-31.83a1.998 1.998 0 0 1 2.828 0 1.998 1.998 0 0 1 0 2.828l-31.828 31.83zm4.492-19.392c-4.366 0-7.918-3.552-7.918-7.92s3.552-7.92 7.918-7.92c4.368 0 7.92 3.552 7.92 7.92s-3.554 7.92-7.92 7.92zm0-11.84a3.923 3.923 0 0 0-3.918 3.92 3.923 3.923 0 0 0 3.918 3.92 3.924 3.924 0 0 0 3.92-3.92 3.924 3.924 0 0 0-3.92-3.92zm19.996 15.996c4.366 0 7.918 3.552 7.918 7.918 0 4.368-3.554 7.92-7.918 7.92-4.366 0-7.916-3.552-7.916-7.92 0-4.366 3.55-7.918 7.916-7.918zm0 11.838a3.923 3.923 0 0 0 3.918-3.92 3.923 3.923 0 0 0-3.918-3.918 3.921 3.921 0 0 0-3.916 3.918 3.922 3.922 0 0 0 3.916 3.92z"/>
</symbol><symbol id="ico-why-3" viewBox="0 0 58 51">
    <style>
        .st0{fill:#eaac39}
    </style>
    <path id="Ellipse_1638_copy_3_1_" class="st0" d="M55 51H3c-1.7 0-3-1.3-3-3V3c0-1.7 1.3-3 3-3h52c1.7 0 3 1.3 3 3v45c0 1.7-1.3 3-3 3zM18 4H5c-.6 0-1 .4-1 1v41c0 .6.4 1 1 1h13V4zm18 0H22v43h14V4zm18 1c0-.6-.4-1-1-1H40v43h13c.6 0 1-.4 1-1V5zm-7 39c-3.3 0-6-2.7-6-6s2.7-6 6-6 6 2.7 6 6-2.7 6-6 6zm0-8c-1.1 0-2 .9-2 2s.9 2 2 2 2-.9 2-2-.9-2-2-2zm4-15h-8c-1.1 0-2-.9-2-2s.9-2 2-2h8c1.1 0 2 .9 2 2s-.9 2-2 2zm0-6h-8c-1.1 0-2-.9-2-2s.9-2 2-2h8c1.1 0 2 .9 2 2s-.9 2-2 2zm-26-4h8c1.1 0 2 .9 2 2s-.9 2-2 2h-8c-1.1 0-2-.9-2-2s.9-2 2-2zm0 6h8c1.1 0 2 .9 2 2s-.9 2-2 2h-8c-1.1 0-2-.9-2-2s.9-2 2-2zm4 15c3.3 0 6 2.7 6 6s-2.7 6-6 6-6-2.7-6-6 2.7-6 6-6zm0 8c1.1 0 2-.9 2-2s-.9-2-2-2-2 .9-2 2 .9 2 2 2zm-18-8c3.3 0 6 2.7 6 6s-2.7 6-6 6-6-2.7-6-6 2.7-6 6-6zm0 8c1.1 0 2-.9 2-2s-.9-2-2-2-2 .9-2 2 .9 2 2 2zm4-19H7c-1.1 0-2-.9-2-2s.9-2 2-2h8c1.1 0 2 .9 2 2s-.9 2-2 2zm0-6H7c-1.1 0-2-.9-2-2s.9-2 2-2h8c1.1 0 2 .9 2 2s-.9 2-2 2z"/>
</symbol><symbol id="ico-why-4" viewBox="0 0 64 64">
    <path fill-rule="evenodd" d="M54.916 40.258H32c-2.891 0-5.368 2.477-5.368 5.368 0 2.477 1.652 4.748 4.129 5.368H32c3.509 0 6.4 2.89 6.4 6.399 0 2.891-1.858 5.162-4.542 6.194-.619.206-1.239.413-1.858.413C14.452 64 0 49.548 0 32 0 14.452 14.452 0 32 0c17.548 0 32 14.452 32 32 0 4.955-3.716 8.258-9.084 8.258zM32 4.129C16.723 4.129 4.129 16.723 4.129 32S16.723 59.871 32 59.871h.619c1.033-.413 1.652-1.239 1.652-2.271A2.29 2.29 0 0 0 32 55.329c-.619 0-1.239 0-1.858-.206h-.206c-4.336-1.033-7.433-4.749-7.433-9.291 0-5.161 4.336-9.496 9.497-9.496h22.916c1.858 0 4.955-.62 4.955-4.13C59.871 16.723 47.277 4.129 32 4.129zM49.135 32c-3.922 0-7.019-3.097-7.019-7.019 0-3.923 3.097-7.02 7.019-7.02 3.923 0 7.02 3.097 7.02 7.02 0 3.922-3.304 7.019-7.02 7.019zm0-9.91c-1.651 0-2.89 1.239-2.89 2.891 0 1.651 1.239 2.89 2.89 2.89 1.652 0 2.891-1.239 2.891-2.89 0-1.652-1.445-2.891-2.891-2.891zm-13.832-.206c-3.922 0-7.019-3.097-7.019-7.019 0-3.923 3.097-7.02 7.019-7.02 3.923 0 7.02 3.097 7.02 7.02 0 3.922-3.303 7.019-7.02 7.019zm0-9.703c-1.651 0-2.89 1.239-2.89 2.89 0 1.652 1.239 2.89 2.89 2.89 1.652 0 2.89-1.238 2.89-2.89 0-1.651-1.444-2.89-2.89-2.89zM19.2 28.077c-3.923 0-7.019-3.096-7.019-7.019 0-3.922 3.096-7.019 7.019-7.019 3.922 0 7.019 3.097 7.019 7.019 0 3.923-3.303 7.019-7.019 7.019zm0-9.909c-1.652 0-2.89 1.239-2.89 2.89 0 1.652 1.238 2.89 2.89 2.89 1.652 0 2.89-1.238 2.89-2.89 0-1.651-1.445-2.89-2.89-2.89zm3.097 18.787c0 3.922-3.303 7.019-7.02 7.019-3.922 0-7.019-3.097-7.019-7.019 0-3.923 3.097-7.02 7.019-7.02 3.923 0 7.02 3.097 7.02 7.02zm-9.91 0c0 1.651 1.239 2.89 2.89 2.89 1.652 0 2.891-1.239 2.891-2.89 0-1.652-1.445-2.89-2.891-2.89-1.651 0-2.89 1.238-2.89 2.89z"/>
</symbol><symbol id="ico-why-5" viewBox="0 0 78 55">
    <style>
        .st0{fill:#eaac39}
    </style>
    <path id="Ellipse_1634_copy_1_" class="st0" d="M76 48H60c-.2 0-.4 0-.6-.1-.5.1-.9.1-1.4.1H30v-.2c-.2 4.1-3.7 7.3-7.8 7.2-3.8-.2-6.9-3.2-7.2-7h-5C4.5 48 0 43.5 0 38V10C0 4.5 4.5 0 10 0h48c5.5 0 10 4.5 10 10v28c0 2.2-.7 4.3-2 6h10c1.1 0 2 .9 2 2s-.9 2-2 2zm-32-4h11V16c0-.6-.4-1-1-1h-9c-.6 0-1 .4-1 1v28zm-21.5 7c1.9 0 3.5-1.6 3.5-3.5S24.4 44 22.5 44 19 45.6 19 47.5s1.6 3.5 3.5 3.5zM64 10c0-3.3-2.7-6-6-6H10c-3.3 0-6 2.7-6 6v28c0 3.3 2.7 6 6 6h5.9c1.9-3.7 6.5-5.1 10.1-3.1 1.3.7 2.4 1.8 3.1 3.1H40V14c0-1.7 1.3-3 3-3h13c1.7 0 3 1.3 3 3v29.9c2.9-.5 5-3 5-5.9V10zM29 29H14c-1.7 0-3-1.3-3-3V14c0-1.7 1.3-3 3-3h15c1.7 0 3 1.3 3 3v12c0 1.7-1.3 3-3 3zm-1-13c0-.6-.4-1-1-1H16c-.6 0-1 .4-1 1v8c0 .6.4 1 1 1h11c.6 0 1-.4 1-1v-8zm23 11c1.1 0 2 .9 2 2s-.9 2-2 2-2-.9-2-2 .9-2 2-2z"/>
</symbol></svg>